<svg width="248" height="56" viewBox="0 0 248 56" fill="none" xmlns="http://www.w3.org/2000/svg">
<mask id="path-1-outside-1_88_95" maskUnits="userSpaceOnUse" x="0" y="0" width="248" height="56" fill="black">
<rect fill="white" width="248" height="56"/>
<path d="M1.27827 31.8824C1.27827 31.8824 1.27827 31.8824 1.1611 31.8824H1.04394C0.985354 31.8235 0.985354 31.7647 1.04394 31.7059C1.04394 31.6471 1.27827 31.4706 1.80551 31.2353C2.39134 31 3.03574 30.8235 3.79732 30.5882C4.44173 30.4118 5.2033 30.1765 5.90629 29.9412C6.1992 29.8235 6.43353 29.8235 6.72645 29.7059C6.84361 29.6471 7.13652 29.5294 7.25369 29.4118C7.37085 29.4118 7.31227 29.2941 7.48802 29.2353C7.48802 29.2353 7.5466 29.1176 7.5466 29.0588C7.72235 28.8824 7.78093 28.7059 7.95668 28.4706C8.30818 28 8.65967 27.4118 9.01117 26.8235C9.77274 25.5882 10.5929 24.2941 10.8272 23.9412C11.8817 22.4118 12.9362 20.9412 13.9321 19.3529C14.8694 17.9412 15.631 16.4118 16.6269 15C16.7441 14.8235 16.9198 14.7647 17.037 14.7647C17.2127 14.7647 17.3299 14.7647 17.3885 14.7647C17.037 15.5882 16.334 16.4706 15.9239 17.2353C15.2795 18.5882 14.225 20.0588 13.3463 21.2353C11.5888 23.7059 9.83132 26.2353 8.77684 28.6471C8.71825 28.8235 8.77684 28.9412 8.83542 29C8.95258 29 9.01116 29 9.12833 29C9.18691 29 9.2455 29 9.36266 29C9.42124 28.9412 9.53841 28.9412 9.53841 28.9412C9.65557 28.9412 9.77274 28.8824 9.94849 28.8235C10.1828 28.7647 10.4757 28.7059 10.4757 28.7059C14.8108 27.6471 19.2045 26.7647 23.4811 26.1765L23.774 26C24.2426 25.5882 24.477 25.0588 24.7699 24.5294C25.1214 24 25.2385 23.5294 25.5314 23.1176C28.2262 19.1176 31.0382 15.2941 33.9088 11.4706C34.0845 11.2941 34.4946 10.5882 35.0218 9.94118C35.2562 9.70588 35.4319 9.35294 35.6662 9.11765C35.7248 9.05882 35.9006 9 35.9006 8.94118C36.0763 8.94118 36.1349 8.94118 36.1935 8.94118C36.3106 9 36.3106 9 36.1935 9.05882C35.9591 9.64706 35.2562 10.8235 34.3188 12C33.3229 13.2941 32.3856 14.5882 31.7412 15.4118C30.8625 16.5882 29.9837 17.5882 29.2807 18.7059C28.2848 20.3529 27.1132 22 26.1173 23.5882C25.7658 24.1765 25.2971 24.8235 25.0628 25.2941C24.9456 25.5294 24.887 25.6471 25.0628 25.7647V25.8824H25.1214C25.2971 25.8824 25.3557 25.8824 25.5314 25.8824C26.5274 25.8824 28.1677 25.6471 29.4565 25.6471C30.9796 25.6471 31.8584 25.6471 31.8584 26.5294C31.7412 26.5882 31.7412 26.6471 31.5655 26.7059C31.3897 26.8235 31.3311 26.8235 31.3311 26.8235C31.214 26.7647 31.214 26.7059 31.1554 26.7059C31.214 26.6471 31.1554 26.6471 31.0968 26.5882C30.921 26.5294 30.921 26.4118 30.8625 26.3529C30.7453 26.2941 30.6281 26.2353 30.3352 26.2353H28.8707C27.7576 26.2353 26.5859 26.3529 25.3557 26.4706C25.1214 26.4706 24.887 26.5294 24.7699 26.5882C24.7699 26.5882 24.7113 26.5882 24.5941 26.6471H24.5355L24.3598 26.7647C24.3012 26.7647 24.0083 27 24.0083 27.0588C23.9497 27.1765 23.8911 27.2941 23.8326 27.4706C23.4811 27.8235 23.4225 28.2353 23.1296 28.7059C22.7195 29.5294 22.1922 30.4706 22.1922 30.5294C21.8993 31.0588 21.4893 31.5294 21.1963 32.1176C20.6691 33.1765 20.259 34.2941 20.0247 35.3529C19.9661 35.6471 20.0833 36.0588 20.0833 36.3529C20.0833 36.4706 20.0833 36.5882 20.1419 36.7059C20.2004 36.7647 20.2004 36.7647 20.2004 36.8235C20.1419 36.9412 19.9075 37 19.7904 37C19.4974 37 19.3217 36.8824 19.2631 36.5294C19.2045 36.2353 19.2045 35.7647 19.3217 35.1765C19.6732 34.1765 20.2004 33.0588 20.3762 32.5882L21.8993 29.4706C22.0751 29 22.4266 28.5882 22.6609 28.1176C22.7195 28.0588 22.9538 27.7647 23.0124 27.5294C23.0124 27.4118 23.071 27.2941 23.0124 27.1176C22.9538 27.0588 22.9538 26.8235 22.6023 26.8235C22.6023 26.8235 22.5437 26.8235 22.4852 26.8824C22.3094 26.8824 22.1922 26.8824 22.1337 26.8824C21.9579 26.9412 21.665 27 21.3721 27.0588C20.8448 27.1176 20.259 27.2353 20.1419 27.2353C18.2672 27.5882 16.2754 27.9412 14.4593 28.2941C12.6433 28.7059 10.8272 29.1765 9.01117 29.5882C8.07384 29.7647 7.78093 30.2941 7.5466 30.7059C6.90219 32 6.14062 33.1765 5.55479 34.4118C5.14472 35.2353 4.67606 36.2941 4.55889 37.1176C4.55889 37.2353 4.50031 37.3529 4.61747 37.4706C4.55889 37.5882 4.67606 37.7059 4.67606 37.8235C4.67606 37.8824 4.79322 38 4.73464 38.0588C4.8518 38.1176 4.73464 38.1765 4.73464 38.2353C4.67606 38.3529 4.50031 38.4706 4.32456 38.4706C4.03165 38.4706 3.91448 38.3529 3.79732 38.0588C3.73873 37.8235 3.73873 37.3529 3.79732 36.9412C4.03165 36 4.61747 34.9412 4.79322 34.5294C5.2033 33.5294 5.78912 32.5882 6.31637 31.5294C6.43353 31.3529 6.5507 31.1176 6.72645 30.8235C6.90219 30.5882 6.49212 30.4118 6.25779 30.4118C6.1992 30.4118 6.08204 30.4118 6.02346 30.4118C6.02346 30.4118 5.84771 30.4706 5.78912 30.4706C5.02755 30.7059 4.14881 30.9412 3.38724 31.1765C2.68425 31.4118 1.98126 31.6471 1.27827 31.8824Z"/>
<path d="M30.6245 28C30.3316 28.1765 30.0386 28.4118 29.8629 28.6471C29.4528 29.1765 29.2185 29.7059 29.0427 29.9412C29.1013 30.0588 28.9256 30.2941 28.867 30.4706C28.7498 30.7059 28.7498 30.9412 28.8084 31.0588C28.7498 31.1176 28.8084 31.1765 28.8084 31.1765C28.9256 31.1765 28.9256 31.2353 28.9842 31.2941L29.1013 31.4118L29.3942 31.3529C30.273 31.1176 31.679 29.5294 31.8547 29.0588C32.089 28.5882 32.2648 28.0588 31.7375 27.7059L31.6204 27.6471H31.5618C31.1517 27.6471 30.8002 27.8235 30.6245 28ZM35.1353 28.0588C35.3697 28 35.6626 27.9412 35.8969 27.9412C36.0726 28 36.1312 28 36.0726 28.1765C35.9555 28.2941 35.7212 28.4118 35.2525 28.5882C34.6667 28.7059 34.1394 28.7647 33.5536 28.7647C33.495 28.7059 33.2607 28.7059 33.0849 28.7059H32.9092L32.7334 28.8235C32.6749 28.8824 32.4405 29.0588 32.3234 29.1765C32.3234 29.2941 32.1476 29.4118 31.9719 29.5882C31.7375 29.8824 31.4446 30.2941 31.0931 30.7059C30.3316 31.4118 29.6286 31.9412 28.6327 31.9412C27.6368 31.9412 27.5782 30.9412 27.9297 30.1176C28.2812 29.4118 30.0386 27.2353 30.8588 27.2353C30.9174 27.2353 31.0931 27.1765 31.2689 27.1176C31.4446 27.1176 31.5032 27.0588 31.679 27C31.8547 26.9412 31.9719 26.9412 32.089 26.9412C32.2648 26.9412 32.3234 26.9412 32.3819 27.0588C32.4991 27.1176 32.4991 27.1765 32.5577 27.2353C32.7334 27.2941 32.7334 27.4118 32.7334 27.4706C32.8506 27.8235 33.2021 28.2353 34.1394 28.2353C34.4909 28.2353 34.8424 28.1765 35.1353 28.0588Z"/>
<path d="M40.0238 27.4706C40.1409 27.1765 40.0238 26.7059 39.4379 26.7059C38.3249 26.7059 37.1532 27.5294 36.3916 28.2941C35.4543 29.0588 34.9271 30 34.5756 30.5294C34.4584 30.8824 34.3998 31.0588 34.3413 31.2941C34.3998 31.3529 34.3998 31.4706 34.3998 31.5294C34.4584 31.6471 34.3998 31.7647 34.3998 31.8824L34.517 32.0588L34.7513 32C36.1573 31.7647 39.7309 28.1765 40.0238 27.4706ZM36.9189 31.4118C36.5674 31.5882 36.2745 31.8235 36.0987 32C35.5129 32.3529 34.8685 32.5882 34.1655 32.5882C33.7554 32.5882 33.6383 32.3529 33.4625 31.9412C33.4039 31.5882 33.5797 31.0588 33.7554 30.7647C34.4584 29.1176 37.2118 26.2353 39.5551 26.2353C40.3753 26.2353 41.0783 27.0588 40.8439 27.6471L40.3167 28.8235C40.0238 29.3529 39.6137 29.8235 39.4379 30.3529C38.9693 31.1176 38.9107 32.7059 40.4924 32.7059C41.7812 32.7059 43.3044 31.6471 44.5346 30.5882C45.179 30.0588 45.8234 29.4706 46.4679 29C46.9365 28.5294 47.4638 28.1176 47.7567 27.9412C47.8738 27.8235 48.0496 27.7647 48.2253 27.7647C48.4011 27.7647 48.4597 27.8235 48.4597 27.9412C48.4597 28 48.2839 28.0588 48.2839 28.1765C48.1082 28.2941 47.8738 28.3529 47.6981 28.4706C46.9365 29.1765 46.1749 29.9412 45.2962 30.7059C44.2417 31.6471 41.6055 33.3529 40.1995 33.3529C38.735 33.3529 38.1491 31.9412 38.442 30.8824V30.4118L37.9148 30.7647C37.6219 30.9412 37.2118 31.1765 36.9189 31.4118ZM38.3835 22.7059C38.3835 22.6471 38.3835 22.6471 38.5006 22.6471C38.5006 22.6471 38.5592 22.6471 38.735 22.8235C38.9107 22.9412 39.0279 23.0588 39.2622 23.2941C39.4965 23.6471 39.7309 24.0588 39.9066 24.2353C39.9652 24.3529 40.1409 24.4706 40.3167 24.5882C40.3753 24.6471 40.551 24.7647 40.6096 24.8824C40.6096 24.9412 40.6096 25 40.6096 25.0588C40.4924 25.2353 40.4338 25.2941 40.1995 25.2941C39.7894 25.2941 38.1491 23.1765 38.1491 22.9412C38.2077 22.8824 38.2077 22.7647 38.3835 22.7059Z"/>
<path d="M49.1713 27.0588C49.1713 27.1176 49.1128 27.1176 48.9956 27.1765C48.9956 27.2941 48.8199 27.3529 48.8199 27.3529C48.4684 27.7059 47.4139 29.3529 47.2967 29.7059L47.121 29.9412H47.8239L47.9997 29.8824C48.3512 29.7059 48.7613 29.4706 49.1128 29.1765C49.3471 28.9412 49.7572 28.7059 50.0501 28.4706C50.8702 27.9412 51.4561 27.6471 52.0419 27.6471C52.3348 27.6471 52.452 27.7647 52.5691 28C52.5691 28.1176 52.5106 28.2941 52.3934 28.4706C52.3934 28.6471 52.3934 28.8235 52.2176 29.0588C52.2176 29.4118 52.0419 29.8824 52.1591 30.1765C52.1591 30.5294 52.452 30.8824 53.155 30.8824C54.6195 30.8824 56.4356 29.5294 57.5487 28.5882C57.9587 28.2941 58.3102 28.1176 58.5446 28C58.5446 28 58.7203 27.9412 58.9546 27.9412C59.1304 27.9412 59.189 28 59.1304 28.1765C58.7789 28.7647 55.0882 31.0588 53.9751 31.2941C53.6822 31.3529 53.2721 31.4118 52.9206 31.4118C52.6863 31.4118 52.5106 31.3529 52.2762 31.3529C51.1632 31.2941 51.046 29.8235 51.4561 28.9412L51.5732 28.7647L51.2217 28.6471H51.1632C50.9288 28.6471 50.6359 28.7647 50.5187 28.8235C50.2258 28.9412 49.9915 29.0588 49.8158 29.2353C49.4057 29.5294 48.9956 29.8824 48.4684 30.2941C47.9411 30.7059 47.531 31.0588 47.121 31.3529C46.6523 31.6471 46.3594 31.7059 46.3008 31.7059C45.8907 31.7059 45.8321 31.5882 45.8907 31.2353C45.8321 31.1176 46.0079 30.8824 46.0665 30.7647C46.1836 30.4706 46.2422 30.2941 46.3594 30.1765C46.4765 29.8824 46.9452 29 47.4725 28.2353C47.8239 27.8235 48.234 27.4118 48.4098 27.1765C48.7613 26.8824 48.9956 26.8235 48.9956 26.8235C49.1713 26.8235 49.2299 26.9412 49.1713 27.0588Z"/>
<path d="M56.5848 31.4118C56.5848 31.5294 56.702 31.7647 57.112 31.7647C58.2251 31.7647 62.2673 28.7059 62.5602 28.1765C62.5602 28.0588 62.6188 28 62.6188 28C62.6188 27.8824 62.5602 27.7647 62.6188 27.6471C62.736 27.5294 62.736 27.3529 62.6774 27.2353C62.6774 26.9412 62.5016 26.6471 61.9158 26.6471H61.8572L61.6815 26.7059C61.5057 26.7647 61.5057 26.7647 61.4471 26.8235C61.2714 26.8824 61.0956 26.8824 61.0371 26.9412C60.6856 27.0588 60.4512 27.1765 60.2755 27.3529C58.9281 28.2941 57.815 29.3529 57.0534 30.4118C56.8777 30.5294 56.8777 30.7059 56.8777 30.7647C56.7605 30.8235 56.7605 30.8824 56.7605 30.9412C56.702 31.0588 56.6434 31.2353 56.5848 31.4118ZM54.3001 40.0588C53.3627 40.5882 52.6012 41.1176 51.8982 41.5294C50.7851 42.1765 49.7892 42.8235 48.6176 43.4706C47.5631 44.1765 46.3914 44.8823 45.2784 45.6471C43.1108 47.2353 41.119 48.8824 40.3574 50.5882C40.1817 50.9412 40.0059 51.3529 40.0645 51.7647C40.1231 52.1176 40.4746 52.4706 41.1776 52.4706C42.2321 52.4706 43.9895 51.6471 44.8683 51.2353C49.2034 49 52.1911 45.8235 54.6516 42.8235C55.2374 42.0588 56.9949 39.7059 57.3464 39C57.4049 38.9412 57.4049 38.8824 57.3464 38.8235C57.4049 38.7647 57.4049 38.7647 57.4049 38.7059L57.2878 38.4706L56.9363 38.6471C56.1161 39 55.2374 39.5294 54.3001 40.0588ZM56.4676 32.4118H56.3505C56.0575 32.4118 55.9404 32.2353 55.7646 31.9412C55.7646 29.6471 60.2169 26.1765 62.2087 26.1765C62.6774 26.1765 62.8531 26.2941 63.0875 26.4118C63.2046 26.5294 63.2632 26.5882 63.4975 26.7059C63.5561 26.7647 63.6733 26.8824 63.9662 26.9412C64.2005 27 64.2005 27.1765 64.2005 27.4118C63.9662 27.8235 63.6733 28.2941 63.4975 28.7059C62.736 30.2353 62.1501 31.7647 61.3886 33.2941C61.4471 33.4118 61.2128 33.8235 61.0371 34.1765C60.9199 34.3529 60.8613 34.5294 60.7441 34.6471C60.7441 34.7647 60.7441 34.8235 60.6856 34.8824C60.7441 34.9412 60.7441 35 60.7441 35.0588V35.1765H60.9199C61.0956 35.1765 61.33 35.1176 61.3886 35.0588C61.5643 35 61.6229 34.8824 61.9158 34.8235C62.0915 34.5882 62.5016 34.3529 62.9117 34.0588C63.5561 33.4706 64.6106 32.6471 65.3722 31.8235C66.7782 30.6471 68.3013 29.3529 69.5901 28.0588C69.8244 27.9412 69.9416 27.8824 70.0002 27.8824C70.1759 27.8824 70.2345 28.0588 70.2345 28.1765C70.0002 28.4706 69.2972 29.1765 68.4185 29.9412C67.4226 30.8235 66.5438 31.5882 66.0752 32C64.7278 33.4118 63.0289 34.7059 61.1542 35.9412C60.8027 36.2353 60.3927 36.4118 59.9826 36.6471C59.4553 37 58.7523 37.9412 58.0494 39.0588C57.1706 40.2353 56.1747 41.7647 54.8859 43.3529C52.3668 46.5882 48.9105 50.1176 44.5168 52C43.3451 52.4706 41.8806 53.0588 40.8261 53.0588C39.1858 53.0588 39.01 52 39.5958 50.8824C41.119 47.5294 45.1026 44.9412 48.2661 43.1176C48.6761 42.8824 48.9105 42.6471 49.3205 42.4706C50.2579 42 51.1366 41.4118 52.0153 40.8235C53.8314 39.5882 56.0575 38.4118 58.0494 37.2353C58.2251 37.1765 58.2251 37.1176 58.2837 37.1176C58.4008 37.0588 58.4594 37 58.518 36.9412C58.6938 36.8235 58.8695 36.7059 58.8695 36.5294C58.9867 36.4118 58.9867 36.3529 59.1624 36.2353C59.221 36.0588 59.3382 35.9412 59.3967 35.7647C59.7482 35.3529 60.3341 34.1765 60.627 33.7059C60.627 33.5882 60.627 33.4706 60.627 33.2941C60.8027 32.8235 60.9785 32.3529 61.2128 31.8235C61.4471 31.2941 61.7986 30.7647 61.9744 30.2353L62.1501 30.0588L61.5643 29.8824L61.3886 30.0588C61.2128 30.1176 61.1542 30.1765 60.9785 30.2353C60.9199 30.2941 60.8027 30.3529 60.6856 30.4706C60.3341 30.7059 60.0412 30.9412 59.6311 31.1765C58.6938 31.7647 57.5807 32.4118 56.4676 32.4118Z"/>
<path d="M92.0753 21.2941C91.3137 21.5882 88.6189 23.7059 87.9745 24.3529C85.7484 26.1176 83.8151 27.8824 81.8819 29.6471C81.589 30.0588 80.9446 30.7647 80.2416 31.4118C79.6558 32.0588 79.07 32.6471 78.6599 32.9412C78.1326 33.2353 77.7226 33.4706 77.3711 33.4706C76.9024 33.4706 76.7852 33.1176 76.8438 32.4706C76.961 32.1765 76.961 31.8235 77.1367 31.5294C77.3125 31.2353 77.4882 30.9412 77.5468 30.7647C77.7812 30.3529 77.7811 30 77.8397 29.6471C78.0741 29.2353 78.4841 28.8235 78.6599 28.4118C80.5345 24.6471 82.995 21.0588 85.7484 17.8824C86.4514 16.9412 87.0958 16.1765 87.2715 16C87.3301 16 87.4473 15.9412 87.4473 15.9412C87.623 15.9412 87.6816 15.9412 87.6816 16C87.623 16.1176 87.6816 16.2353 87.623 16.3529C87.3887 16.7647 86.9786 17.2941 86.5685 17.8824C85.9827 18.4706 85.514 19.0588 85.1626 19.4706C83.6394 21.5294 82.3506 23.5294 80.9446 25.5882C80.7103 26.0588 79.8315 27.4118 79.5972 27.8235L78.1326 30.9412C77.8983 31.2941 77.8983 31.7647 77.7811 32.1176V32.2941H78.0155C78.1912 32.2941 78.367 32.2353 78.4256 32.1765C78.4841 32.1765 78.6013 32.1176 78.6599 32.0588C78.8356 31.9412 78.9528 31.8235 79.1871 31.6471C79.4215 31.4118 79.5972 31.1176 79.773 31C83.5808 27.1765 87.5644 23.7059 91.9581 20.5882C92.1339 20.4118 92.6025 20.2941 92.954 20.2941C93.0126 20.2941 93.1298 20.3529 93.1884 20.5294C93.3641 20.7059 93.3641 21 93.3055 21.4118C93.1884 22.1765 92.8369 23.1765 92.4854 24.1765C92.0167 25.2941 91.6066 26.2941 91.2551 27.1176C91.138 27.5294 90.9622 27.8824 90.9622 28.1176C90.8451 28.2353 90.7865 28.3529 90.7865 28.4706C90.7865 28.5294 90.7865 28.5294 90.8451 28.5882C90.8451 28.6471 90.9036 28.7059 91.0208 28.7059L91.0794 28.7647H91.2551C91.4309 28.7059 91.4895 28.6471 91.4895 28.6471C91.548 28.5882 91.6066 28.5882 91.6066 28.5294C91.6066 28.4706 91.7824 28.4118 91.841 28.2941C92.0753 28.1176 92.3096 27.8824 92.544 27.5882C92.8954 27.1176 93.2469 26.5882 93.4227 26.4706C96.1175 23.3529 106.369 13.8824 110.939 13.8824C112.169 13.8824 112.403 14.7647 111.993 15.6471L110.587 18.4706C110.412 18.9412 110.119 19.4118 109.767 19.9412C109.299 20.4706 108.947 20.9412 108.654 21.4118C107.717 22.7647 106.662 24.1176 105.725 25.5294C104.671 26.8824 103.85 28.2353 103.206 29.5882C102.854 30.3529 102.151 31.2353 101.8 32.0588C101.449 32.7059 101.156 33.4118 100.921 34.0588C100.57 34.7647 100.277 35.4706 100.16 36.1765C100.101 36.2941 100.101 36.3529 100.16 36.4706C100.16 36.5294 100.16 36.6471 100.218 36.7059C100.335 36.7647 100.335 36.8235 100.335 36.8824C100.335 36.9412 100.335 37 100.335 37C100.335 37 100.16 37.1176 100.16 37.1765C100.101 37.1765 99.9839 37.2353 99.9839 37.2353C99.3981 37.2353 99.3395 37 99.281 36.5294C99.3981 36 99.5739 35.4706 99.7496 35.0588C99.9839 34.7059 99.9254 34.4118 100.101 34.0588C100.335 33.4118 100.687 32.7647 100.98 32.1765C103.44 26.8824 108.42 21.7647 110.939 16.5294C110.997 16.2941 111.232 15.8824 111.232 15.4706C111.232 15.2353 111.29 15 111.173 14.8824C111.115 14.7059 110.939 14.5294 110.587 14.5294C110.177 14.5294 109.533 14.7647 109.24 14.8824C103.675 16.8824 95.6488 24.5882 92.6611 28.2941C92.3096 28.7059 91.7238 29.5294 91.138 30.2941C90.5521 31.1176 89.9077 31.8235 89.732 32.0588C89.4977 32.2941 89.3219 32.3529 89.2633 32.3529C88.8533 32.3529 88.7361 32.2353 88.7361 32C88.9704 30.9412 90.1421 28.0588 90.6693 26.8824C90.7279 26.8235 90.7279 26.7647 90.8451 26.6471C90.6693 26.5882 90.7865 26.5294 90.7865 26.4706C90.8451 26.4118 90.7865 26.3529 90.7865 26.2941C90.8451 26.2353 90.8451 26.2353 90.8451 26.1765C91.0208 25.7059 91.548 24.6471 91.841 23.7059C92.3096 22.7647 92.4854 21.8235 92.4854 21.3529L92.4268 21.1176L92.0753 21.2941Z"/>
<path d="M106.828 40.4706C106.418 40.8235 105.95 41.1176 105.423 41.4706C104.602 41.9412 103.841 42.3529 103.079 42.7647C98.4512 45.6471 93.1787 49.0588 91.3041 53.0588C91.0698 53.4706 91.1869 54.4118 92.0657 54.4118C93.5888 54.4118 95.5806 53.6471 96.8695 53C100.97 51 103.665 47.6471 105.481 44.9412C105.95 44.2353 106.418 43.2941 106.828 42.7647C107.356 42.1176 107.824 41.2941 108.176 40.5882C108.234 40.4706 108.234 40.3529 108.352 40.1765V39.9412L107.942 40C107.766 40.0588 106.946 40.4118 106.828 40.4706ZM111.749 36.7059C111.749 36.6471 111.984 36.5294 112.16 36.4706C112.511 36.2941 112.862 35.9412 113.331 35.6471C114.268 35 115.323 34.1176 116.377 33.2941C118.545 31.5294 120.947 29.5882 121.416 29.1176C121.708 28.8824 121.943 28.6471 122.119 28.4118C122.353 28.1765 122.587 28 122.704 27.8235C122.939 27.7059 123.232 27.5882 123.349 27.5882C123.466 27.5882 123.525 27.7059 123.466 27.7647C123.114 29.0588 112.277 37.0588 110.636 38.1765C109.699 38.7059 108.645 40.8235 108.293 41.8235C107.942 42.3529 107.473 42.9412 107.121 43.5294C105.305 46.7059 101.966 50.7647 97.631 53.1176C95.9907 54 93.6474 55 91.8899 55C90.7769 55 90.0739 54.1176 90.484 53.2353L91.1869 51.8235C91.3627 51.3529 92.0071 50.7059 92.4758 50.1765C94.7605 47.6471 98.5684 44.8235 102.025 42.8235C103.196 42.1176 104.427 41.4118 105.54 40.7647C106.711 40.0588 107.766 39.4118 108.82 38.6471C108.996 38.5294 109.055 38.4118 109.23 38.2353C109.465 38.0588 110.168 36.8235 110.168 36.6471C110.636 35.8824 110.754 35.2353 111.105 34.5294L112.687 31.1765C112.745 31 112.745 30.8824 112.57 30.7647L112.452 30.5882L112.277 30.7059C112.16 30.7647 112.042 30.8235 112.042 30.8824C111.925 30.8824 111.925 30.9412 111.749 31C111.632 31.1176 111.515 31.2353 111.339 31.3529C110.988 31.6471 110.578 32 110.109 32.3529C109.055 33.1176 108.059 33.7059 107.004 33.7059C106.36 33.7059 106.008 33.3529 105.95 32.7647C105.891 32.2353 106.067 31.5882 106.36 31.0588C106.536 30.7647 107.063 29.7059 107.649 28.7647C108 28.2941 108.352 27.8235 108.703 27.5294C108.879 27.3529 108.937 27.2353 109.055 27.1765C109.113 27.1176 109.23 27.1176 109.23 27.1176C109.348 27.1176 109.465 27.2353 109.348 27.5294C109.289 27.6471 109.289 27.7059 109.113 27.8235C108.176 29 107.531 30.1176 106.887 31.4118C106.828 31.5882 106.711 32 106.711 32.2941C106.711 32.4706 106.77 32.6471 106.77 32.7647C106.887 32.9412 107.004 33.0588 107.297 33.0588C107.824 33.0588 108.41 32.8235 108.879 32.5294C109.406 32.2353 109.875 31.8235 110.461 31.4118C111.398 30.5294 112.452 29.5882 112.804 29.1765C113.155 28.7647 113.565 28.2353 113.917 27.7059C114.093 27.4706 114.268 27.2353 114.444 27C114.62 26.7647 114.737 26.5882 114.971 26.4118C115.147 26.2353 115.382 26.1176 115.557 26.1176C115.616 26.1176 115.792 26.3529 115.733 26.5294C115.382 27.2353 114.913 27.9412 114.561 28.5882C114.327 29.1765 114.21 29.7059 113.917 30.2353C113.741 30.7647 112.98 32.1765 112.335 33.5294C111.691 34.8235 110.988 36.2941 110.929 36.6471L110.988 36.8235H111.222C111.398 36.8235 111.632 36.7647 111.749 36.7059ZM109.523 25.0588C109.699 24.3529 111.105 23.5882 112.042 23.5882C112.218 23.5882 112.335 23.6471 112.511 23.7647C112.687 23.8235 112.921 23.9412 113.097 24.1176C113.155 24.1765 113.214 24.2353 113.39 24.2941C113.741 24.6471 113.976 24.7059 114.503 24.7059C115.264 24.7059 115.616 24.3529 115.967 24.1176C115.967 24.0588 116.085 24 116.085 23.9412C116.26 23.8824 116.202 23.8235 116.202 23.8235C116.319 23.7647 116.319 23.7647 116.436 23.7647C116.729 23.7647 116.788 23.8235 116.67 24.1176C116.436 24.7059 115.264 25.2941 114.444 25.2941C113.448 25.2941 112.57 24.6471 111.867 24.1765V24.1176H111.691C111.105 24.2353 110.285 24.6471 109.933 25.1176C109.875 25.1176 109.758 25.1765 109.699 25.1765C109.582 25.1765 109.582 25.1765 109.582 25.1765C109.582 25.1765 109.523 25.1176 109.523 25.0588Z"/>
<path d="M134.158 24.6471C136.325 21.8235 138.493 18.8824 140.953 16.0588C141.363 15.4118 143.824 11.7059 144.468 11.7059C144.644 11.7059 144.644 11.7647 144.644 11.8824C144.175 12.8824 141.715 16 140.66 17.1176C139.957 18 139.372 18.8235 138.61 19.7647C138.2 20.4118 137.614 21.0588 137.087 21.7059C134.744 24.7059 132.459 27.8235 130.994 30.9412C129.94 33.0588 129.764 36.4118 133.689 36.4118C136.618 36.4118 139.899 34.7059 142.652 32.8824C145.523 31 147.866 29.0588 149.975 27.8235C150.151 27.7059 150.209 27.7059 150.444 27.7059L150.561 27.8235C150.444 27.9412 150.268 28.1765 150.092 28.3529C147.163 30.5294 144.41 32.6471 140.953 34.4706C138.61 35.8235 135.739 36.9412 133.103 36.9412C130.233 36.9412 129.295 35.1176 129.53 33.1765C129.647 32.8824 129.705 32.5294 129.881 32.2353C129.94 31.8824 130.057 31.5294 130.116 31.1765C130.116 31.0588 130.116 31 130.174 30.9412C130.174 30.8235 130.291 30.7059 130.291 30.5294C130.467 30.2941 130.643 30 130.819 29.7647C130.877 29.5294 131.053 29.2941 131.17 29.0588L131.404 28.7647H131.346C132.283 27.4118 133.045 26.0588 134.158 24.6471Z"/>
<path d="M153.642 27.4706C153.759 27.1765 153.642 26.7059 153.056 26.7059C151.943 26.7059 150.771 27.5294 150.01 28.2941C149.072 29.0588 148.545 30 148.194 30.5294C148.077 30.8824 148.018 31.0588 147.959 31.2941C148.018 31.3529 148.018 31.4706 148.018 31.5294C148.077 31.6471 148.018 31.7647 148.018 31.8824L148.135 32.0588L148.369 32C149.775 31.7647 153.349 28.1765 153.642 27.4706ZM150.537 31.4118C150.186 31.5882 149.893 31.8235 149.717 32C149.131 32.3529 148.487 32.5882 147.784 32.5882C147.374 32.5882 147.256 32.3529 147.081 31.9412C147.022 31.5882 147.198 31.0588 147.374 30.7647C148.077 29.1176 150.83 26.2353 153.173 26.2353C153.993 26.2353 154.696 27.0588 154.462 27.6471L153.935 28.8235C153.642 29.3529 153.232 29.8235 153.056 30.3529C152.587 31.1176 152.529 32.7059 154.111 32.7059C155.399 32.7059 156.923 31.6471 158.153 30.5882C158.797 30.0588 159.442 29.4706 160.086 29C160.555 28.5294 161.082 28.1176 161.375 27.9412C161.492 27.8235 161.668 27.7647 161.843 27.7647C162.019 27.7647 162.078 27.8235 162.078 27.9412C162.078 28 161.902 28.0588 161.902 28.1765C161.726 28.2941 161.492 28.3529 161.316 28.4706C160.555 29.1765 159.793 29.9412 158.914 30.7059C157.86 31.6471 155.224 33.3529 153.818 33.3529C152.353 33.3529 151.767 31.9412 152.06 30.8824V30.4118L151.533 30.7647C151.24 30.9412 150.83 31.1765 150.537 31.4118Z"/>
<path d="M170.64 27.3529C170.581 27.3529 170.581 27.4118 170.464 27.4118C170.464 27.4118 170.405 27.4118 170.229 27.4706C169.116 28.0588 167.476 29.4118 166.773 30.2353C166.773 30.3529 166.597 30.4706 166.539 30.5294C166.539 30.5882 166.422 30.5882 166.422 30.5882C166.422 30.8235 166.012 30.8235 165.836 30.8235C165.836 30.7647 165.777 30.7647 165.66 30.7647C165.543 30.7059 165.543 30.7059 165.543 30.5882C166.012 29.8235 166.304 28.6471 166.48 27.7647C166.597 27.5882 166.539 27.4706 166.597 27.3529C166.597 27.2941 166.48 27.1765 166.48 27.0588L166.422 26.9412L166.129 27C164.898 27.4118 163.61 28.6471 162.614 29.6471C162.086 30.2941 161.442 30.9412 160.739 31.4118C160.68 31.4706 160.563 31.4706 160.563 31.4706C160.329 31.4706 160.27 31.3529 160.095 31.1176C160.095 30.8824 160.212 30.4706 160.27 30.2941L161.325 28.1176C161.559 27.7059 162.614 25.8824 163.024 25.5294C163.141 25.3529 163.141 25.3529 163.258 25.3529C163.492 25.3529 163.551 25.4706 163.492 25.6471C162.965 26.5882 162.262 27.5294 161.852 28.4118C161.735 28.5294 161.794 28.6471 161.735 28.7647L161.794 28.8824H161.911C161.911 28.9412 161.969 28.9412 162.086 28.9412C162.204 28.9412 162.321 28.9412 162.497 28.8824C162.555 28.8235 162.614 28.7647 162.614 28.7647C162.789 28.6471 162.907 28.5294 163.082 28.4118C163.375 28.1765 163.727 27.8235 164.137 27.5294C165.016 26.8235 165.836 26.2941 166.89 26.2941C167.183 26.2941 167.3 26.4706 167.359 26.8824C167.359 27.0588 167.359 27.2353 167.359 27.4118C167.3 27.6471 167.3 27.8235 167.242 27.9412V28H167.359C167.242 28.0588 167.242 28.0588 167.242 28.1176L167.183 28.2353L167.359 28.2941C167.359 28.3529 167.417 28.3529 167.476 28.3529C167.769 28.3529 168.003 28.2941 168.003 28.2353C168.238 28.1765 168.296 28.0588 168.472 28C168.999 27.4706 170.932 26.4706 171.577 26.4706C171.928 26.4706 172.163 26.6471 172.163 27C172.046 27.1765 172.104 27.3529 171.928 27.6471C171.928 27.8824 171.87 28.1176 171.753 28.4118C171.518 28.9412 171.284 29.5294 171.284 29.9412C171.343 30.4118 171.694 30.8235 172.573 30.8235C173.744 30.8235 174.975 29.9412 175.912 29.2353C176.498 28.8824 176.908 28.5294 177.318 28.2941C177.611 28.1176 177.669 28.0588 177.904 28C177.904 27.9412 178.021 27.9412 178.021 27.9412C178.255 27.9412 178.314 28 178.255 28.1176C178.138 28.2353 178.021 28.3529 177.904 28.4706C176.381 29.7059 174.213 31.4118 172.221 31.4118C170.64 31.4118 170.405 30.5882 170.581 29.6471C170.698 29.1765 170.932 28.7059 171.05 28.2941C171.108 28.1176 171.108 27.9412 171.108 27.7647C171.108 27.6471 171.225 27.4706 171.108 27.3529L170.991 27.2353L170.64 27.3529Z"/>
<path d="M207.527 22.2353C207.996 21.4706 208.406 20.6471 208.757 19.8824C209.284 19.2353 210.69 16.2941 210.983 15.7059C211.042 15.6471 211.159 15.4118 211.218 15.2353C211.218 15.1176 211.335 15 211.393 14.8824C211.393 14.8235 211.393 14.8235 211.393 14.7647C211.393 14.7059 211.393 14.6471 211.393 14.5882L211.335 14.5294H211.218C210.983 14.5294 210.749 14.5882 210.573 14.7647C210.573 14.7647 210.515 14.8235 210.515 14.8824C210.28 15.1176 209.987 15.4118 209.519 15.8235C209.167 16.1765 208.816 16.5294 208.406 16.8235C206.121 19.1176 203.368 21.4118 200.79 23.5882C200.79 23.6471 200.497 23.9412 200.087 24.1765C199.911 24.3529 199.735 24.4706 199.677 24.5882C199.677 24.5882 199.56 24.6471 199.501 24.7059C199.384 24.7647 199.384 24.8235 199.384 24.8235C199.267 25 199.267 25.1765 199.442 25.2941H199.735C201.551 25 203.836 24.8235 205.652 24.8235H205.828L205.887 24.7647C206.238 24.5294 206.59 24.2353 206.648 24C206.648 23.8235 206.824 23.5882 207 23.3529C207.117 23 207.41 22.5882 207.527 22.2353ZM209.519 25.2353C210.222 25.4118 210.515 25.6471 210.339 26.1176C210.163 26.3529 209.753 26.6471 209.519 26.6471C209.402 26.6471 209.284 26.4118 209.343 26.1765L209.46 26.0588L209.343 26C209.05 25.6471 208.23 25.5882 207.644 25.5882C207.41 25.5882 207.117 25.5882 206.824 25.6471L206.531 25.7647C206.531 25.8235 206.414 25.8824 206.414 25.8824C206.472 25.9412 206.472 25.9412 206.355 26C206.355 26.0588 206.238 26.1765 206.238 26.2353C206.062 26.4706 206.062 26.7059 205.887 27C205.535 27.4706 205.418 28 205.359 28.1765C204.363 30.1176 202.665 34.0588 202.665 35.8824L202.606 36.0588H202.84C203.016 36.0588 203.25 36.0588 203.426 36.1765C203.543 36.2353 203.602 36.2941 203.602 36.2941C203.367 36.6471 202.899 36.8824 202.372 36.8824C202.196 36.8824 202.02 36.8235 201.903 36.5882C201.786 36.3529 201.844 35.9412 201.903 35.5294C201.962 34.5882 202.372 33.4118 202.84 32.1765C203.778 29.6471 205.184 27 205.359 26.4706C205.769 25.5882 205.711 25.4706 204.481 25.4706C203.543 25.4706 198.622 25.8824 197.802 26.1176L197.568 26.2353C197.099 26.6471 195.049 28.2353 192.94 29.7647C191.827 30.5294 190.889 31.3529 190.011 31.8824C189.542 32.1176 189.249 32.3529 188.898 32.4706C188.605 32.6471 188.488 32.7059 188.37 32.7059C188.37 32.7059 188.37 32.6471 188.253 32.5882C188.253 32.5294 188.136 32.4706 188.077 32.4118C188.429 32.1176 188.546 32 189.015 31.8235C189.659 31.6471 191.007 30.5294 192.413 29.4706C193.057 28.9412 193.819 28.4118 194.463 27.9412C195.049 27.4706 195.576 27.1176 195.81 26.8824L196.045 26.7647L195.986 26.6471C195.928 26.5294 195.81 26.4118 195.576 26.4118C195.517 26.4118 195.4 26.4118 195.283 26.4706C195.166 26.4706 195.107 26.4706 195.107 26.4706C194.17 26.5882 192.471 26.9412 190.714 27.2353C189.073 27.5294 187.433 27.7647 186.906 27.7647C186.847 27.7647 186.847 27.7059 186.906 27.5882C187.023 27.4118 187.199 27.2941 187.316 27.2941C188.898 27 190.421 26.7647 192.002 26.4706C193.526 26.1765 194.932 25.8824 196.513 25.7059C197.275 25.5882 197.685 25.4706 198.271 24.9412C202.84 21.4118 207.293 17.4706 211.276 13.2353C212.916 11.5294 214.674 9.88235 216.139 8.05882C216.314 7.82353 216.666 7.64706 216.841 7.64706C216.9 7.64706 217.017 7.64706 217.076 7.70588C216.783 8.47059 216.197 9.23529 215.67 9.82353C213.795 12.0588 211.862 15.2353 210.632 17.8235C210.573 18.1176 210.28 18.3529 210.222 18.6471C209.226 20.6471 208.113 22.6471 207.175 24.5882L207.117 24.7647L207.351 24.8235C207.878 24.9412 208.757 25 209.519 25.2353Z"/>
<path d="M212.619 27.0588C212.619 27.1176 212.56 27.1176 212.443 27.1765C212.443 27.2941 212.267 27.3529 212.267 27.3529C211.916 27.7059 210.861 29.3529 210.744 29.7059L210.569 29.9412H211.272L211.447 29.8824C211.799 29.7059 212.209 29.4706 212.56 29.1765C212.795 28.9412 213.205 28.7059 213.498 28.4706C214.318 27.9412 214.904 27.6471 215.49 27.6471C215.782 27.6471 215.9 27.7647 216.017 28C216.017 28.1176 215.958 28.2941 215.841 28.4706C215.841 28.6471 215.841 28.8235 215.665 29.0588C215.665 29.4118 215.49 29.8824 215.607 30.1765C215.607 30.5294 215.9 30.8824 216.603 30.8824C218.067 30.8824 219.883 29.5294 220.996 28.5882C221.406 28.2941 221.758 28.1176 221.992 28C221.992 28 222.168 27.9412 222.402 27.9412C222.578 27.9412 222.637 28 222.578 28.1765C222.227 28.7647 218.536 31.0588 217.423 31.2941C217.13 31.3529 216.72 31.4118 216.368 31.4118C216.134 31.4118 215.958 31.3529 215.724 31.3529C214.611 31.2941 214.494 29.8235 214.904 28.9412L215.021 28.7647L214.669 28.6471H214.611C214.376 28.6471 214.084 28.7647 213.966 28.8235C213.673 28.9412 213.439 29.0588 213.263 29.2353C212.853 29.5294 212.443 29.8824 211.916 30.2941C211.389 30.7059 210.979 31.0588 210.569 31.3529C210.1 31.6471 209.807 31.7059 209.748 31.7059C209.338 31.7059 209.28 31.5882 209.338 31.2353C209.28 31.1176 209.456 30.8824 209.514 30.7647C209.631 30.4706 209.69 30.2941 209.807 30.1765C209.924 29.8824 210.393 29 210.92 28.2353C211.272 27.8235 211.682 27.4118 211.857 27.1765C212.209 26.8824 212.443 26.8235 212.443 26.8235C212.619 26.8235 212.678 26.9412 212.619 27.0588Z"/>
<path d="M245.457 1.64706C240.419 3.35294 227.062 19.5882 224.016 26C223.899 26.1765 224.016 26.2941 224.192 26.3529L224.25 26.4706L224.485 26.3529C224.602 26.3529 224.836 26.2353 224.895 26.1765C225.071 26.1176 225.129 26 225.363 25.8824C225.774 25.6471 226.184 25.3529 226.535 25C227.355 24.4118 228.293 23.7647 228.527 23.5294C230.284 22.0588 232.042 20.6471 233.799 19C233.858 18.8824 233.916 18.7647 234.092 18.6471C234.209 18.5294 234.209 18.4118 234.268 18.2941C235.03 17.4118 236.143 16.5882 236.904 15.7059C240.185 12.2941 244.344 7 246.043 3.47059C246.336 2.94118 246.512 1.88235 245.809 1.58823H245.633L245.457 1.64706ZM222.2 29.2353C222.083 29.5294 222.024 29.7647 221.966 30.0588L221.907 30.2353H222.141C222.493 30.2353 222.786 30.1176 222.903 29.9412C223.137 29.8235 223.313 29.7059 223.372 29.5882C223.489 29.5294 223.665 29.4118 223.782 29.2941C224.895 28.1765 226.769 27.0588 228.351 27.0588C228.761 27.0588 228.996 27.2353 229.054 27.5294C229.113 27.8824 228.996 28.2941 228.937 28.8235C228.761 29.0588 228.82 29.2941 228.703 29.5294C228.703 29.7647 228.703 30 228.703 30.1765C228.703 30.5882 228.82 31 229.581 31C230.753 31 231.925 30.3529 232.745 29.7059C233.682 29.0588 234.502 28.2941 235.088 27.8235C235.088 27.8235 235.088 27.8235 235.205 27.8235C235.381 27.8235 235.381 27.8235 235.44 27.8235C235.674 27.8235 235.85 27.8824 235.674 28.2353C235.264 28.8235 232.686 30.4118 231.983 30.8235C231.163 31.2941 230.226 31.5882 229.406 31.5882C227.941 31.5882 227.824 30.4706 228 29.4118C228 29.1765 228 28.9412 228.117 28.6471C228.117 28.4118 228.175 28.1765 228.293 27.9412L228.41 27.7059H228.058C227.297 27.7059 226.652 28 225.891 28.4118C225.246 28.8824 224.543 29.4118 223.782 29.9412C223.313 30.4706 222.669 31.0588 222.2 31.4706C221.848 31.7059 221.614 31.8235 221.438 31.9412C221.321 32.0588 221.263 32.0588 221.145 32.0588C220.735 32.0588 220.56 31.7647 220.618 31.1765C220.735 30.8824 220.853 30.5294 220.97 30.2941C221.145 30 221.263 29.7647 221.321 29.5882C224.016 23.8235 227.707 18.7647 231.749 13.8824C232.921 12.2941 234.385 10.7059 235.908 9.17647C236.67 8.29412 238.486 6.23529 240.595 4.41177C242.645 2.41176 244.579 1 245.809 1C246.687 1 247.098 1.47059 246.98 2.17647C246.98 3.82353 245.809 5.52941 244.871 6.82353C244.344 7.58823 243.641 8.41176 243.114 9.23529C237.842 16.2353 231.632 22.9412 223.957 27.2941L223.782 27.3529C223.723 27.4118 223.723 27.4118 223.547 27.4706C223.489 27.5294 223.313 27.5882 223.137 27.7059L222.962 27.7647V27.8235C222.786 28.2941 222.434 28.7647 222.2 29.2353Z"/>
</mask>
<path d="M1.27827 31.8824C1.27827 31.8824 1.27827 31.8824 1.1611 31.8824H1.04394C0.985354 31.8235 0.985354 31.7647 1.04394 31.7059C1.04394 31.6471 1.27827 31.4706 1.80551 31.2353C2.39134 31 3.03574 30.8235 3.79732 30.5882C4.44173 30.4118 5.2033 30.1765 5.90629 29.9412C6.1992 29.8235 6.43353 29.8235 6.72645 29.7059C6.84361 29.6471 7.13652 29.5294 7.25369 29.4118C7.37085 29.4118 7.31227 29.2941 7.48802 29.2353C7.48802 29.2353 7.5466 29.1176 7.5466 29.0588C7.72235 28.8824 7.78093 28.7059 7.95668 28.4706C8.30818 28 8.65967 27.4118 9.01117 26.8235C9.77274 25.5882 10.5929 24.2941 10.8272 23.9412C11.8817 22.4118 12.9362 20.9412 13.9321 19.3529C14.8694 17.9412 15.631 16.4118 16.6269 15C16.7441 14.8235 16.9198 14.7647 17.037 14.7647C17.2127 14.7647 17.3299 14.7647 17.3885 14.7647C17.037 15.5882 16.334 16.4706 15.9239 17.2353C15.2795 18.5882 14.225 20.0588 13.3463 21.2353C11.5888 23.7059 9.83132 26.2353 8.77684 28.6471C8.71825 28.8235 8.77684 28.9412 8.83542 29C8.95258 29 9.01116 29 9.12833 29C9.18691 29 9.2455 29 9.36266 29C9.42124 28.9412 9.53841 28.9412 9.53841 28.9412C9.65557 28.9412 9.77274 28.8824 9.94849 28.8235C10.1828 28.7647 10.4757 28.7059 10.4757 28.7059C14.8108 27.6471 19.2045 26.7647 23.4811 26.1765L23.774 26C24.2426 25.5882 24.477 25.0588 24.7699 24.5294C25.1214 24 25.2385 23.5294 25.5314 23.1176C28.2262 19.1176 31.0382 15.2941 33.9088 11.4706C34.0845 11.2941 34.4946 10.5882 35.0218 9.94118C35.2562 9.70588 35.4319 9.35294 35.6662 9.11765C35.7248 9.05882 35.9006 9 35.9006 8.94118C36.0763 8.94118 36.1349 8.94118 36.1935 8.94118C36.3106 9 36.3106 9 36.1935 9.05882C35.9591 9.64706 35.2562 10.8235 34.3188 12C33.3229 13.2941 32.3856 14.5882 31.7412 15.4118C30.8625 16.5882 29.9837 17.5882 29.2807 18.7059C28.2848 20.3529 27.1132 22 26.1173 23.5882C25.7658 24.1765 25.2971 24.8235 25.0628 25.2941C24.9456 25.5294 24.887 25.6471 25.0628 25.7647V25.8824H25.1214C25.2971 25.8824 25.3557 25.8824 25.5314 25.8824C26.5274 25.8824 28.1677 25.6471 29.4565 25.6471C30.9796 25.6471 31.8584 25.6471 31.8584 26.5294C31.7412 26.5882 31.7412 26.6471 31.5655 26.7059C31.3897 26.8235 31.3311 26.8235 31.3311 26.8235C31.214 26.7647 31.214 26.7059 31.1554 26.7059C31.214 26.6471 31.1554 26.6471 31.0968 26.5882C30.921 26.5294 30.921 26.4118 30.8625 26.3529C30.7453 26.2941 30.6281 26.2353 30.3352 26.2353H28.8707C27.7576 26.2353 26.5859 26.3529 25.3557 26.4706C25.1214 26.4706 24.887 26.5294 24.7699 26.5882C24.7699 26.5882 24.7113 26.5882 24.5941 26.6471H24.5355L24.3598 26.7647C24.3012 26.7647 24.0083 27 24.0083 27.0588C23.9497 27.1765 23.8911 27.2941 23.8326 27.4706C23.4811 27.8235 23.4225 28.2353 23.1296 28.7059C22.7195 29.5294 22.1922 30.4706 22.1922 30.5294C21.8993 31.0588 21.4893 31.5294 21.1963 32.1176C20.6691 33.1765 20.259 34.2941 20.0247 35.3529C19.9661 35.6471 20.0833 36.0588 20.0833 36.3529C20.0833 36.4706 20.0833 36.5882 20.1419 36.7059C20.2004 36.7647 20.2004 36.7647 20.2004 36.8235C20.1419 36.9412 19.9075 37 19.7904 37C19.4974 37 19.3217 36.8824 19.2631 36.5294C19.2045 36.2353 19.2045 35.7647 19.3217 35.1765C19.6732 34.1765 20.2004 33.0588 20.3762 32.5882L21.8993 29.4706C22.0751 29 22.4266 28.5882 22.6609 28.1176C22.7195 28.0588 22.9538 27.7647 23.0124 27.5294C23.0124 27.4118 23.071 27.2941 23.0124 27.1176C22.9538 27.0588 22.9538 26.8235 22.6023 26.8235C22.6023 26.8235 22.5437 26.8235 22.4852 26.8824C22.3094 26.8824 22.1922 26.8824 22.1337 26.8824C21.9579 26.9412 21.665 27 21.3721 27.0588C20.8448 27.1176 20.259 27.2353 20.1419 27.2353C18.2672 27.5882 16.2754 27.9412 14.4593 28.2941C12.6433 28.7059 10.8272 29.1765 9.01117 29.5882C8.07384 29.7647 7.78093 30.2941 7.5466 30.7059C6.90219 32 6.14062 33.1765 5.55479 34.4118C5.14472 35.2353 4.67606 36.2941 4.55889 37.1176C4.55889 37.2353 4.50031 37.3529 4.61747 37.4706C4.55889 37.5882 4.67606 37.7059 4.67606 37.8235C4.67606 37.8824 4.79322 38 4.73464 38.0588C4.8518 38.1176 4.73464 38.1765 4.73464 38.2353C4.67606 38.3529 4.50031 38.4706 4.32456 38.4706C4.03165 38.4706 3.91448 38.3529 3.79732 38.0588C3.73873 37.8235 3.73873 37.3529 3.79732 36.9412C4.03165 36 4.61747 34.9412 4.79322 34.5294C5.2033 33.5294 5.78912 32.5882 6.31637 31.5294C6.43353 31.3529 6.5507 31.1176 6.72645 30.8235C6.90219 30.5882 6.49212 30.4118 6.25779 30.4118C6.1992 30.4118 6.08204 30.4118 6.02346 30.4118C6.02346 30.4118 5.84771 30.4706 5.78912 30.4706C5.02755 30.7059 4.14881 30.9412 3.38724 31.1765C2.68425 31.4118 1.98126 31.6471 1.27827 31.8824Z" fill="white"/>
<path d="M30.6245 28C30.3316 28.1765 30.0386 28.4118 29.8629 28.6471C29.4528 29.1765 29.2185 29.7059 29.0427 29.9412C29.1013 30.0588 28.9256 30.2941 28.867 30.4706C28.7498 30.7059 28.7498 30.9412 28.8084 31.0588C28.7498 31.1176 28.8084 31.1765 28.8084 31.1765C28.9256 31.1765 28.9256 31.2353 28.9842 31.2941L29.1013 31.4118L29.3942 31.3529C30.273 31.1176 31.679 29.5294 31.8547 29.0588C32.089 28.5882 32.2648 28.0588 31.7375 27.7059L31.6204 27.6471H31.5618C31.1517 27.6471 30.8002 27.8235 30.6245 28ZM35.1353 28.0588C35.3697 28 35.6626 27.9412 35.8969 27.9412C36.0726 28 36.1312 28 36.0726 28.1765C35.9555 28.2941 35.7212 28.4118 35.2525 28.5882C34.6667 28.7059 34.1394 28.7647 33.5536 28.7647C33.495 28.7059 33.2607 28.7059 33.0849 28.7059H32.9092L32.7334 28.8235C32.6749 28.8824 32.4405 29.0588 32.3234 29.1765C32.3234 29.2941 32.1476 29.4118 31.9719 29.5882C31.7375 29.8824 31.4446 30.2941 31.0931 30.7059C30.3316 31.4118 29.6286 31.9412 28.6327 31.9412C27.6368 31.9412 27.5782 30.9412 27.9297 30.1176C28.2812 29.4118 30.0386 27.2353 30.8588 27.2353C30.9174 27.2353 31.0931 27.1765 31.2689 27.1176C31.4446 27.1176 31.5032 27.0588 31.679 27C31.8547 26.9412 31.9719 26.9412 32.089 26.9412C32.2648 26.9412 32.3234 26.9412 32.3819 27.0588C32.4991 27.1176 32.4991 27.1765 32.5577 27.2353C32.7334 27.2941 32.7334 27.4118 32.7334 27.4706C32.8506 27.8235 33.2021 28.2353 34.1394 28.2353C34.4909 28.2353 34.8424 28.1765 35.1353 28.0588Z" fill="white"/>
<path d="M40.0238 27.4706C40.1409 27.1765 40.0238 26.7059 39.4379 26.7059C38.3249 26.7059 37.1532 27.5294 36.3916 28.2941C35.4543 29.0588 34.9271 30 34.5756 30.5294C34.4584 30.8824 34.3998 31.0588 34.3413 31.2941C34.3998 31.3529 34.3998 31.4706 34.3998 31.5294C34.4584 31.6471 34.3998 31.7647 34.3998 31.8824L34.517 32.0588L34.7513 32C36.1573 31.7647 39.7309 28.1765 40.0238 27.4706ZM36.9189 31.4118C36.5674 31.5882 36.2745 31.8235 36.0987 32C35.5129 32.3529 34.8685 32.5882 34.1655 32.5882C33.7554 32.5882 33.6383 32.3529 33.4625 31.9412C33.4039 31.5882 33.5797 31.0588 33.7554 30.7647C34.4584 29.1176 37.2118 26.2353 39.5551 26.2353C40.3753 26.2353 41.0783 27.0588 40.8439 27.6471L40.3167 28.8235C40.0238 29.3529 39.6137 29.8235 39.4379 30.3529C38.9693 31.1176 38.9107 32.7059 40.4924 32.7059C41.7812 32.7059 43.3044 31.6471 44.5346 30.5882C45.179 30.0588 45.8234 29.4706 46.4679 29C46.9365 28.5294 47.4638 28.1176 47.7567 27.9412C47.8738 27.8235 48.0496 27.7647 48.2253 27.7647C48.4011 27.7647 48.4597 27.8235 48.4597 27.9412C48.4597 28 48.2839 28.0588 48.2839 28.1765C48.1082 28.2941 47.8738 28.3529 47.6981 28.4706C46.9365 29.1765 46.1749 29.9412 45.2962 30.7059C44.2417 31.6471 41.6055 33.3529 40.1995 33.3529C38.735 33.3529 38.1491 31.9412 38.442 30.8824V30.4118L37.9148 30.7647C37.6219 30.9412 37.2118 31.1765 36.9189 31.4118ZM38.3835 22.7059C38.3835 22.6471 38.3835 22.6471 38.5006 22.6471C38.5006 22.6471 38.5592 22.6471 38.735 22.8235C38.9107 22.9412 39.0279 23.0588 39.2622 23.2941C39.4965 23.6471 39.7309 24.0588 39.9066 24.2353C39.9652 24.3529 40.1409 24.4706 40.3167 24.5882C40.3753 24.6471 40.551 24.7647 40.6096 24.8824C40.6096 24.9412 40.6096 25 40.6096 25.0588C40.4924 25.2353 40.4338 25.2941 40.1995 25.2941C39.7894 25.2941 38.1491 23.1765 38.1491 22.9412C38.2077 22.8824 38.2077 22.7647 38.3835 22.7059Z" fill="white"/>
<path d="M49.1713 27.0588C49.1713 27.1176 49.1128 27.1176 48.9956 27.1765C48.9956 27.2941 48.8199 27.3529 48.8199 27.3529C48.4684 27.7059 47.4139 29.3529 47.2967 29.7059L47.121 29.9412H47.8239L47.9997 29.8824C48.3512 29.7059 48.7613 29.4706 49.1128 29.1765C49.3471 28.9412 49.7572 28.7059 50.0501 28.4706C50.8702 27.9412 51.4561 27.6471 52.0419 27.6471C52.3348 27.6471 52.452 27.7647 52.5691 28C52.5691 28.1176 52.5106 28.2941 52.3934 28.4706C52.3934 28.6471 52.3934 28.8235 52.2176 29.0588C52.2176 29.4118 52.0419 29.8824 52.1591 30.1765C52.1591 30.5294 52.452 30.8824 53.155 30.8824C54.6195 30.8824 56.4356 29.5294 57.5487 28.5882C57.9587 28.2941 58.3102 28.1176 58.5446 28C58.5446 28 58.7203 27.9412 58.9546 27.9412C59.1304 27.9412 59.189 28 59.1304 28.1765C58.7789 28.7647 55.0882 31.0588 53.9751 31.2941C53.6822 31.3529 53.2721 31.4118 52.9206 31.4118C52.6863 31.4118 52.5106 31.3529 52.2762 31.3529C51.1632 31.2941 51.046 29.8235 51.4561 28.9412L51.5732 28.7647L51.2217 28.6471H51.1632C50.9288 28.6471 50.6359 28.7647 50.5187 28.8235C50.2258 28.9412 49.9915 29.0588 49.8158 29.2353C49.4057 29.5294 48.9956 29.8824 48.4684 30.2941C47.9411 30.7059 47.531 31.0588 47.121 31.3529C46.6523 31.6471 46.3594 31.7059 46.3008 31.7059C45.8907 31.7059 45.8321 31.5882 45.8907 31.2353C45.8321 31.1176 46.0079 30.8824 46.0665 30.7647C46.1836 30.4706 46.2422 30.2941 46.3594 30.1765C46.4765 29.8824 46.9452 29 47.4725 28.2353C47.8239 27.8235 48.234 27.4118 48.4098 27.1765C48.7613 26.8824 48.9956 26.8235 48.9956 26.8235C49.1713 26.8235 49.2299 26.9412 49.1713 27.0588Z" fill="white"/>
<path d="M56.5848 31.4118C56.5848 31.5294 56.702 31.7647 57.112 31.7647C58.2251 31.7647 62.2673 28.7059 62.5602 28.1765C62.5602 28.0588 62.6188 28 62.6188 28C62.6188 27.8824 62.5602 27.7647 62.6188 27.6471C62.736 27.5294 62.736 27.3529 62.6774 27.2353C62.6774 26.9412 62.5016 26.6471 61.9158 26.6471H61.8572L61.6815 26.7059C61.5057 26.7647 61.5057 26.7647 61.4471 26.8235C61.2714 26.8824 61.0956 26.8824 61.0371 26.9412C60.6856 27.0588 60.4512 27.1765 60.2755 27.3529C58.9281 28.2941 57.815 29.3529 57.0534 30.4118C56.8777 30.5294 56.8777 30.7059 56.8777 30.7647C56.7605 30.8235 56.7605 30.8824 56.7605 30.9412C56.702 31.0588 56.6434 31.2353 56.5848 31.4118ZM54.3001 40.0588C53.3627 40.5882 52.6012 41.1176 51.8982 41.5294C50.7851 42.1765 49.7892 42.8235 48.6176 43.4706C47.5631 44.1765 46.3914 44.8823 45.2784 45.6471C43.1108 47.2353 41.119 48.8824 40.3574 50.5882C40.1817 50.9412 40.0059 51.3529 40.0645 51.7647C40.1231 52.1176 40.4746 52.4706 41.1776 52.4706C42.2321 52.4706 43.9895 51.6471 44.8683 51.2353C49.2034 49 52.1911 45.8235 54.6516 42.8235C55.2374 42.0588 56.9949 39.7059 57.3464 39C57.4049 38.9412 57.4049 38.8824 57.3464 38.8235C57.4049 38.7647 57.4049 38.7647 57.4049 38.7059L57.2878 38.4706L56.9363 38.6471C56.1161 39 55.2374 39.5294 54.3001 40.0588ZM56.4676 32.4118H56.3505C56.0575 32.4118 55.9404 32.2353 55.7646 31.9412C55.7646 29.6471 60.2169 26.1765 62.2087 26.1765C62.6774 26.1765 62.8531 26.2941 63.0875 26.4118C63.2046 26.5294 63.2632 26.5882 63.4975 26.7059C63.5561 26.7647 63.6733 26.8824 63.9662 26.9412C64.2005 27 64.2005 27.1765 64.2005 27.4118C63.9662 27.8235 63.6733 28.2941 63.4975 28.7059C62.736 30.2353 62.1501 31.7647 61.3886 33.2941C61.4471 33.4118 61.2128 33.8235 61.0371 34.1765C60.9199 34.3529 60.8613 34.5294 60.7441 34.6471C60.7441 34.7647 60.7441 34.8235 60.6856 34.8824C60.7441 34.9412 60.7441 35 60.7441 35.0588V35.1765H60.9199C61.0956 35.1765 61.33 35.1176 61.3886 35.0588C61.5643 35 61.6229 34.8824 61.9158 34.8235C62.0915 34.5882 62.5016 34.3529 62.9117 34.0588C63.5561 33.4706 64.6106 32.6471 65.3722 31.8235C66.7782 30.6471 68.3013 29.3529 69.5901 28.0588C69.8244 27.9412 69.9416 27.8824 70.0002 27.8824C70.1759 27.8824 70.2345 28.0588 70.2345 28.1765C70.0002 28.4706 69.2972 29.1765 68.4185 29.9412C67.4226 30.8235 66.5438 31.5882 66.0752 32C64.7278 33.4118 63.0289 34.7059 61.1542 35.9412C60.8027 36.2353 60.3927 36.4118 59.9826 36.6471C59.4553 37 58.7523 37.9412 58.0494 39.0588C57.1706 40.2353 56.1747 41.7647 54.8859 43.3529C52.3668 46.5882 48.9105 50.1176 44.5168 52C43.3451 52.4706 41.8806 53.0588 40.8261 53.0588C39.1858 53.0588 39.01 52 39.5958 50.8824C41.119 47.5294 45.1026 44.9412 48.2661 43.1176C48.6761 42.8824 48.9105 42.6471 49.3205 42.4706C50.2579 42 51.1366 41.4118 52.0153 40.8235C53.8314 39.5882 56.0575 38.4118 58.0494 37.2353C58.2251 37.1765 58.2251 37.1176 58.2837 37.1176C58.4008 37.0588 58.4594 37 58.518 36.9412C58.6938 36.8235 58.8695 36.7059 58.8695 36.5294C58.9867 36.4118 58.9867 36.3529 59.1624 36.2353C59.221 36.0588 59.3382 35.9412 59.3967 35.7647C59.7482 35.3529 60.3341 34.1765 60.627 33.7059C60.627 33.5882 60.627 33.4706 60.627 33.2941C60.8027 32.8235 60.9785 32.3529 61.2128 31.8235C61.4471 31.2941 61.7986 30.7647 61.9744 30.2353L62.1501 30.0588L61.5643 29.8824L61.3886 30.0588C61.2128 30.1176 61.1542 30.1765 60.9785 30.2353C60.9199 30.2941 60.8027 30.3529 60.6856 30.4706C60.3341 30.7059 60.0412 30.9412 59.6311 31.1765C58.6938 31.7647 57.5807 32.4118 56.4676 32.4118Z" fill="white"/>
<path d="M92.0753 21.2941C91.3137 21.5882 88.6189 23.7059 87.9745 24.3529C85.7484 26.1176 83.8151 27.8824 81.8819 29.6471C81.589 30.0588 80.9446 30.7647 80.2416 31.4118C79.6558 32.0588 79.07 32.6471 78.6599 32.9412C78.1326 33.2353 77.7226 33.4706 77.3711 33.4706C76.9024 33.4706 76.7852 33.1176 76.8438 32.4706C76.961 32.1765 76.961 31.8235 77.1367 31.5294C77.3125 31.2353 77.4882 30.9412 77.5468 30.7647C77.7812 30.3529 77.7811 30 77.8397 29.6471C78.0741 29.2353 78.4841 28.8235 78.6599 28.4118C80.5345 24.6471 82.995 21.0588 85.7484 17.8824C86.4514 16.9412 87.0958 16.1765 87.2715 16C87.3301 16 87.4473 15.9412 87.4473 15.9412C87.623 15.9412 87.6816 15.9412 87.6816 16C87.623 16.1176 87.6816 16.2353 87.623 16.3529C87.3887 16.7647 86.9786 17.2941 86.5685 17.8824C85.9827 18.4706 85.514 19.0588 85.1626 19.4706C83.6394 21.5294 82.3506 23.5294 80.9446 25.5882C80.7103 26.0588 79.8315 27.4118 79.5972 27.8235L78.1326 30.9412C77.8983 31.2941 77.8983 31.7647 77.7811 32.1176V32.2941H78.0155C78.1912 32.2941 78.367 32.2353 78.4256 32.1765C78.4841 32.1765 78.6013 32.1176 78.6599 32.0588C78.8356 31.9412 78.9528 31.8235 79.1871 31.6471C79.4215 31.4118 79.5972 31.1176 79.773 31C83.5808 27.1765 87.5644 23.7059 91.9581 20.5882C92.1339 20.4118 92.6025 20.2941 92.954 20.2941C93.0126 20.2941 93.1298 20.3529 93.1884 20.5294C93.3641 20.7059 93.3641 21 93.3055 21.4118C93.1884 22.1765 92.8369 23.1765 92.4854 24.1765C92.0167 25.2941 91.6066 26.2941 91.2551 27.1176C91.138 27.5294 90.9622 27.8824 90.9622 28.1176C90.8451 28.2353 90.7865 28.3529 90.7865 28.4706C90.7865 28.5294 90.7865 28.5294 90.8451 28.5882C90.8451 28.6471 90.9036 28.7059 91.0208 28.7059L91.0794 28.7647H91.2551C91.4309 28.7059 91.4895 28.6471 91.4895 28.6471C91.548 28.5882 91.6066 28.5882 91.6066 28.5294C91.6066 28.4706 91.7824 28.4118 91.841 28.2941C92.0753 28.1176 92.3096 27.8824 92.544 27.5882C92.8954 27.1176 93.2469 26.5882 93.4227 26.4706C96.1175 23.3529 106.369 13.8824 110.939 13.8824C112.169 13.8824 112.403 14.7647 111.993 15.6471L110.587 18.4706C110.412 18.9412 110.119 19.4118 109.767 19.9412C109.299 20.4706 108.947 20.9412 108.654 21.4118C107.717 22.7647 106.662 24.1176 105.725 25.5294C104.671 26.8824 103.85 28.2353 103.206 29.5882C102.854 30.3529 102.151 31.2353 101.8 32.0588C101.449 32.7059 101.156 33.4118 100.921 34.0588C100.57 34.7647 100.277 35.4706 100.16 36.1765C100.101 36.2941 100.101 36.3529 100.16 36.4706C100.16 36.5294 100.16 36.6471 100.218 36.7059C100.335 36.7647 100.335 36.8235 100.335 36.8824C100.335 36.9412 100.335 37 100.335 37C100.335 37 100.16 37.1176 100.16 37.1765C100.101 37.1765 99.9839 37.2353 99.9839 37.2353C99.3981 37.2353 99.3395 37 99.281 36.5294C99.3981 36 99.5739 35.4706 99.7496 35.0588C99.9839 34.7059 99.9254 34.4118 100.101 34.0588C100.335 33.4118 100.687 32.7647 100.98 32.1765C103.44 26.8824 108.42 21.7647 110.939 16.5294C110.997 16.2941 111.232 15.8824 111.232 15.4706C111.232 15.2353 111.29 15 111.173 14.8824C111.115 14.7059 110.939 14.5294 110.587 14.5294C110.177 14.5294 109.533 14.7647 109.24 14.8824C103.675 16.8824 95.6488 24.5882 92.6611 28.2941C92.3096 28.7059 91.7238 29.5294 91.138 30.2941C90.5521 31.1176 89.9077 31.8235 89.732 32.0588C89.4977 32.2941 89.3219 32.3529 89.2633 32.3529C88.8533 32.3529 88.7361 32.2353 88.7361 32C88.9704 30.9412 90.1421 28.0588 90.6693 26.8824C90.7279 26.8235 90.7279 26.7647 90.8451 26.6471C90.6693 26.5882 90.7865 26.5294 90.7865 26.4706C90.8451 26.4118 90.7865 26.3529 90.7865 26.2941C90.8451 26.2353 90.8451 26.2353 90.8451 26.1765C91.0208 25.7059 91.548 24.6471 91.841 23.7059C92.3096 22.7647 92.4854 21.8235 92.4854 21.3529L92.4268 21.1176L92.0753 21.2941Z" fill="white"/>
<path d="M106.828 40.4706C106.418 40.8235 105.95 41.1176 105.423 41.4706C104.602 41.9412 103.841 42.3529 103.079 42.7647C98.4512 45.6471 93.1787 49.0588 91.3041 53.0588C91.0698 53.4706 91.1869 54.4118 92.0657 54.4118C93.5888 54.4118 95.5806 53.6471 96.8695 53C100.97 51 103.665 47.6471 105.481 44.9412C105.95 44.2353 106.418 43.2941 106.828 42.7647C107.356 42.1176 107.824 41.2941 108.176 40.5882C108.234 40.4706 108.234 40.3529 108.352 40.1765V39.9412L107.942 40C107.766 40.0588 106.946 40.4118 106.828 40.4706ZM111.749 36.7059C111.749 36.6471 111.984 36.5294 112.16 36.4706C112.511 36.2941 112.862 35.9412 113.331 35.6471C114.268 35 115.323 34.1176 116.377 33.2941C118.545 31.5294 120.947 29.5882 121.416 29.1176C121.708 28.8824 121.943 28.6471 122.119 28.4118C122.353 28.1765 122.587 28 122.704 27.8235C122.939 27.7059 123.232 27.5882 123.349 27.5882C123.466 27.5882 123.525 27.7059 123.466 27.7647C123.114 29.0588 112.277 37.0588 110.636 38.1765C109.699 38.7059 108.645 40.8235 108.293 41.8235C107.942 42.3529 107.473 42.9412 107.121 43.5294C105.305 46.7059 101.966 50.7647 97.631 53.1176C95.9907 54 93.6474 55 91.8899 55C90.7769 55 90.0739 54.1176 90.484 53.2353L91.1869 51.8235C91.3627 51.3529 92.0071 50.7059 92.4758 50.1765C94.7605 47.6471 98.5684 44.8235 102.025 42.8235C103.196 42.1176 104.427 41.4118 105.54 40.7647C106.711 40.0588 107.766 39.4118 108.82 38.6471C108.996 38.5294 109.055 38.4118 109.23 38.2353C109.465 38.0588 110.168 36.8235 110.168 36.6471C110.636 35.8824 110.754 35.2353 111.105 34.5294L112.687 31.1765C112.745 31 112.745 30.8824 112.57 30.7647L112.452 30.5882L112.277 30.7059C112.16 30.7647 112.042 30.8235 112.042 30.8824C111.925 30.8824 111.925 30.9412 111.749 31C111.632 31.1176 111.515 31.2353 111.339 31.3529C110.988 31.6471 110.578 32 110.109 32.3529C109.055 33.1176 108.059 33.7059 107.004 33.7059C106.36 33.7059 106.008 33.3529 105.95 32.7647C105.891 32.2353 106.067 31.5882 106.36 31.0588C106.536 30.7647 107.063 29.7059 107.649 28.7647C108 28.2941 108.352 27.8235 108.703 27.5294C108.879 27.3529 108.937 27.2353 109.055 27.1765C109.113 27.1176 109.23 27.1176 109.23 27.1176C109.348 27.1176 109.465 27.2353 109.348 27.5294C109.289 27.6471 109.289 27.7059 109.113 27.8235C108.176 29 107.531 30.1176 106.887 31.4118C106.828 31.5882 106.711 32 106.711 32.2941C106.711 32.4706 106.77 32.6471 106.77 32.7647C106.887 32.9412 107.004 33.0588 107.297 33.0588C107.824 33.0588 108.41 32.8235 108.879 32.5294C109.406 32.2353 109.875 31.8235 110.461 31.4118C111.398 30.5294 112.452 29.5882 112.804 29.1765C113.155 28.7647 113.565 28.2353 113.917 27.7059C114.093 27.4706 114.268 27.2353 114.444 27C114.62 26.7647 114.737 26.5882 114.971 26.4118C115.147 26.2353 115.382 26.1176 115.557 26.1176C115.616 26.1176 115.792 26.3529 115.733 26.5294C115.382 27.2353 114.913 27.9412 114.561 28.5882C114.327 29.1765 114.21 29.7059 113.917 30.2353C113.741 30.7647 112.98 32.1765 112.335 33.5294C111.691 34.8235 110.988 36.2941 110.929 36.6471L110.988 36.8235H111.222C111.398 36.8235 111.632 36.7647 111.749 36.7059ZM109.523 25.0588C109.699 24.3529 111.105 23.5882 112.042 23.5882C112.218 23.5882 112.335 23.6471 112.511 23.7647C112.687 23.8235 112.921 23.9412 113.097 24.1176C113.155 24.1765 113.214 24.2353 113.39 24.2941C113.741 24.6471 113.976 24.7059 114.503 24.7059C115.264 24.7059 115.616 24.3529 115.967 24.1176C115.967 24.0588 116.085 24 116.085 23.9412C116.26 23.8824 116.202 23.8235 116.202 23.8235C116.319 23.7647 116.319 23.7647 116.436 23.7647C116.729 23.7647 116.788 23.8235 116.67 24.1176C116.436 24.7059 115.264 25.2941 114.444 25.2941C113.448 25.2941 112.57 24.6471 111.867 24.1765V24.1176H111.691C111.105 24.2353 110.285 24.6471 109.933 25.1176C109.875 25.1176 109.758 25.1765 109.699 25.1765C109.582 25.1765 109.582 25.1765 109.582 25.1765C109.582 25.1765 109.523 25.1176 109.523 25.0588Z" fill="white"/>
<path d="M134.158 24.6471C136.325 21.8235 138.493 18.8824 140.953 16.0588C141.363 15.4118 143.824 11.7059 144.468 11.7059C144.644 11.7059 144.644 11.7647 144.644 11.8824C144.175 12.8824 141.715 16 140.66 17.1176C139.957 18 139.372 18.8235 138.61 19.7647C138.2 20.4118 137.614 21.0588 137.087 21.7059C134.744 24.7059 132.459 27.8235 130.994 30.9412C129.94 33.0588 129.764 36.4118 133.689 36.4118C136.618 36.4118 139.899 34.7059 142.652 32.8824C145.523 31 147.866 29.0588 149.975 27.8235C150.151 27.7059 150.209 27.7059 150.444 27.7059L150.561 27.8235C150.444 27.9412 150.268 28.1765 150.092 28.3529C147.163 30.5294 144.41 32.6471 140.953 34.4706C138.61 35.8235 135.739 36.9412 133.103 36.9412C130.233 36.9412 129.295 35.1176 129.53 33.1765C129.647 32.8824 129.705 32.5294 129.881 32.2353C129.94 31.8824 130.057 31.5294 130.116 31.1765C130.116 31.0588 130.116 31 130.174 30.9412C130.174 30.8235 130.291 30.7059 130.291 30.5294C130.467 30.2941 130.643 30 130.819 29.7647C130.877 29.5294 131.053 29.2941 131.17 29.0588L131.404 28.7647H131.346C132.283 27.4118 133.045 26.0588 134.158 24.6471Z" fill="white"/>
<path d="M153.642 27.4706C153.759 27.1765 153.642 26.7059 153.056 26.7059C151.943 26.7059 150.771 27.5294 150.01 28.2941C149.072 29.0588 148.545 30 148.194 30.5294C148.077 30.8824 148.018 31.0588 147.959 31.2941C148.018 31.3529 148.018 31.4706 148.018 31.5294C148.077 31.6471 148.018 31.7647 148.018 31.8824L148.135 32.0588L148.369 32C149.775 31.7647 153.349 28.1765 153.642 27.4706ZM150.537 31.4118C150.186 31.5882 149.893 31.8235 149.717 32C149.131 32.3529 148.487 32.5882 147.784 32.5882C147.374 32.5882 147.256 32.3529 147.081 31.9412C147.022 31.5882 147.198 31.0588 147.374 30.7647C148.077 29.1176 150.83 26.2353 153.173 26.2353C153.993 26.2353 154.696 27.0588 154.462 27.6471L153.935 28.8235C153.642 29.3529 153.232 29.8235 153.056 30.3529C152.587 31.1176 152.529 32.7059 154.111 32.7059C155.399 32.7059 156.923 31.6471 158.153 30.5882C158.797 30.0588 159.442 29.4706 160.086 29C160.555 28.5294 161.082 28.1176 161.375 27.9412C161.492 27.8235 161.668 27.7647 161.843 27.7647C162.019 27.7647 162.078 27.8235 162.078 27.9412C162.078 28 161.902 28.0588 161.902 28.1765C161.726 28.2941 161.492 28.3529 161.316 28.4706C160.555 29.1765 159.793 29.9412 158.914 30.7059C157.86 31.6471 155.224 33.3529 153.818 33.3529C152.353 33.3529 151.767 31.9412 152.06 30.8824V30.4118L151.533 30.7647C151.24 30.9412 150.83 31.1765 150.537 31.4118Z" fill="white"/>
<path d="M170.64 27.3529C170.581 27.3529 170.581 27.4118 170.464 27.4118C170.464 27.4118 170.405 27.4118 170.229 27.4706C169.116 28.0588 167.476 29.4118 166.773 30.2353C166.773 30.3529 166.597 30.4706 166.539 30.5294C166.539 30.5882 166.422 30.5882 166.422 30.5882C166.422 30.8235 166.012 30.8235 165.836 30.8235C165.836 30.7647 165.777 30.7647 165.66 30.7647C165.543 30.7059 165.543 30.7059 165.543 30.5882C166.012 29.8235 166.304 28.6471 166.48 27.7647C166.597 27.5882 166.539 27.4706 166.597 27.3529C166.597 27.2941 166.48 27.1765 166.48 27.0588L166.422 26.9412L166.129 27C164.898 27.4118 163.61 28.6471 162.614 29.6471C162.086 30.2941 161.442 30.9412 160.739 31.4118C160.68 31.4706 160.563 31.4706 160.563 31.4706C160.329 31.4706 160.27 31.3529 160.095 31.1176C160.095 30.8824 160.212 30.4706 160.27 30.2941L161.325 28.1176C161.559 27.7059 162.614 25.8824 163.024 25.5294C163.141 25.3529 163.141 25.3529 163.258 25.3529C163.492 25.3529 163.551 25.4706 163.492 25.6471C162.965 26.5882 162.262 27.5294 161.852 28.4118C161.735 28.5294 161.794 28.6471 161.735 28.7647L161.794 28.8824H161.911C161.911 28.9412 161.969 28.9412 162.086 28.9412C162.204 28.9412 162.321 28.9412 162.497 28.8824C162.555 28.8235 162.614 28.7647 162.614 28.7647C162.789 28.6471 162.907 28.5294 163.082 28.4118C163.375 28.1765 163.727 27.8235 164.137 27.5294C165.016 26.8235 165.836 26.2941 166.89 26.2941C167.183 26.2941 167.3 26.4706 167.359 26.8824C167.359 27.0588 167.359 27.2353 167.359 27.4118C167.3 27.6471 167.3 27.8235 167.242 27.9412V28H167.359C167.242 28.0588 167.242 28.0588 167.242 28.1176L167.183 28.2353L167.359 28.2941C167.359 28.3529 167.417 28.3529 167.476 28.3529C167.769 28.3529 168.003 28.2941 168.003 28.2353C168.238 28.1765 168.296 28.0588 168.472 28C168.999 27.4706 170.932 26.4706 171.577 26.4706C171.928 26.4706 172.163 26.6471 172.163 27C172.046 27.1765 172.104 27.3529 171.928 27.6471C171.928 27.8824 171.87 28.1176 171.753 28.4118C171.518 28.9412 171.284 29.5294 171.284 29.9412C171.343 30.4118 171.694 30.8235 172.573 30.8235C173.744 30.8235 174.975 29.9412 175.912 29.2353C176.498 28.8824 176.908 28.5294 177.318 28.2941C177.611 28.1176 177.669 28.0588 177.904 28C177.904 27.9412 178.021 27.9412 178.021 27.9412C178.255 27.9412 178.314 28 178.255 28.1176C178.138 28.2353 178.021 28.3529 177.904 28.4706C176.381 29.7059 174.213 31.4118 172.221 31.4118C170.64 31.4118 170.405 30.5882 170.581 29.6471C170.698 29.1765 170.932 28.7059 171.05 28.2941C171.108 28.1176 171.108 27.9412 171.108 27.7647C171.108 27.6471 171.225 27.4706 171.108 27.3529L170.991 27.2353L170.64 27.3529Z" fill="white"/>
<path d="M207.527 22.2353C207.996 21.4706 208.406 20.6471 208.757 19.8824C209.284 19.2353 210.69 16.2941 210.983 15.7059C211.042 15.6471 211.159 15.4118 211.218 15.2353C211.218 15.1176 211.335 15 211.393 14.8824C211.393 14.8235 211.393 14.8235 211.393 14.7647C211.393 14.7059 211.393 14.6471 211.393 14.5882L211.335 14.5294H211.218C210.983 14.5294 210.749 14.5882 210.573 14.7647C210.573 14.7647 210.515 14.8235 210.515 14.8824C210.28 15.1176 209.987 15.4118 209.519 15.8235C209.167 16.1765 208.816 16.5294 208.406 16.8235C206.121 19.1176 203.368 21.4118 200.79 23.5882C200.79 23.6471 200.497 23.9412 200.087 24.1765C199.911 24.3529 199.735 24.4706 199.677 24.5882C199.677 24.5882 199.56 24.6471 199.501 24.7059C199.384 24.7647 199.384 24.8235 199.384 24.8235C199.267 25 199.267 25.1765 199.442 25.2941H199.735C201.551 25 203.836 24.8235 205.652 24.8235H205.828L205.887 24.7647C206.238 24.5294 206.59 24.2353 206.648 24C206.648 23.8235 206.824 23.5882 207 23.3529C207.117 23 207.41 22.5882 207.527 22.2353ZM209.519 25.2353C210.222 25.4118 210.515 25.6471 210.339 26.1176C210.163 26.3529 209.753 26.6471 209.519 26.6471C209.402 26.6471 209.284 26.4118 209.343 26.1765L209.46 26.0588L209.343 26C209.05 25.6471 208.23 25.5882 207.644 25.5882C207.41 25.5882 207.117 25.5882 206.824 25.6471L206.531 25.7647C206.531 25.8235 206.414 25.8824 206.414 25.8824C206.472 25.9412 206.472 25.9412 206.355 26C206.355 26.0588 206.238 26.1765 206.238 26.2353C206.062 26.4706 206.062 26.7059 205.887 27C205.535 27.4706 205.418 28 205.359 28.1765C204.363 30.1176 202.665 34.0588 202.665 35.8824L202.606 36.0588H202.84C203.016 36.0588 203.25 36.0588 203.426 36.1765C203.543 36.2353 203.602 36.2941 203.602 36.2941C203.367 36.6471 202.899 36.8824 202.372 36.8824C202.196 36.8824 202.02 36.8235 201.903 36.5882C201.786 36.3529 201.844 35.9412 201.903 35.5294C201.962 34.5882 202.372 33.4118 202.84 32.1765C203.778 29.6471 205.184 27 205.359 26.4706C205.769 25.5882 205.711 25.4706 204.481 25.4706C203.543 25.4706 198.622 25.8824 197.802 26.1176L197.568 26.2353C197.099 26.6471 195.049 28.2353 192.94 29.7647C191.827 30.5294 190.889 31.3529 190.011 31.8824C189.542 32.1176 189.249 32.3529 188.898 32.4706C188.605 32.6471 188.488 32.7059 188.37 32.7059C188.37 32.7059 188.37 32.6471 188.253 32.5882C188.253 32.5294 188.136 32.4706 188.077 32.4118C188.429 32.1176 188.546 32 189.015 31.8235C189.659 31.6471 191.007 30.5294 192.413 29.4706C193.057 28.9412 193.819 28.4118 194.463 27.9412C195.049 27.4706 195.576 27.1176 195.81 26.8824L196.045 26.7647L195.986 26.6471C195.928 26.5294 195.81 26.4118 195.576 26.4118C195.517 26.4118 195.4 26.4118 195.283 26.4706C195.166 26.4706 195.107 26.4706 195.107 26.4706C194.17 26.5882 192.471 26.9412 190.714 27.2353C189.073 27.5294 187.433 27.7647 186.906 27.7647C186.847 27.7647 186.847 27.7059 186.906 27.5882C187.023 27.4118 187.199 27.2941 187.316 27.2941C188.898 27 190.421 26.7647 192.002 26.4706C193.526 26.1765 194.932 25.8824 196.513 25.7059C197.275 25.5882 197.685 25.4706 198.271 24.9412C202.84 21.4118 207.293 17.4706 211.276 13.2353C212.916 11.5294 214.674 9.88235 216.139 8.05882C216.314 7.82353 216.666 7.64706 216.841 7.64706C216.9 7.64706 217.017 7.64706 217.076 7.70588C216.783 8.47059 216.197 9.23529 215.67 9.82353C213.795 12.0588 211.862 15.2353 210.632 17.8235C210.573 18.1176 210.28 18.3529 210.222 18.6471C209.226 20.6471 208.113 22.6471 207.175 24.5882L207.117 24.7647L207.351 24.8235C207.878 24.9412 208.757 25 209.519 25.2353Z" fill="white"/>
<path d="M212.619 27.0588C212.619 27.1176 212.56 27.1176 212.443 27.1765C212.443 27.2941 212.267 27.3529 212.267 27.3529C211.916 27.7059 210.861 29.3529 210.744 29.7059L210.569 29.9412H211.272L211.447 29.8824C211.799 29.7059 212.209 29.4706 212.56 29.1765C212.795 28.9412 213.205 28.7059 213.498 28.4706C214.318 27.9412 214.904 27.6471 215.49 27.6471C215.782 27.6471 215.9 27.7647 216.017 28C216.017 28.1176 215.958 28.2941 215.841 28.4706C215.841 28.6471 215.841 28.8235 215.665 29.0588C215.665 29.4118 215.49 29.8824 215.607 30.1765C215.607 30.5294 215.9 30.8824 216.603 30.8824C218.067 30.8824 219.883 29.5294 220.996 28.5882C221.406 28.2941 221.758 28.1176 221.992 28C221.992 28 222.168 27.9412 222.402 27.9412C222.578 27.9412 222.637 28 222.578 28.1765C222.227 28.7647 218.536 31.0588 217.423 31.2941C217.13 31.3529 216.72 31.4118 216.368 31.4118C216.134 31.4118 215.958 31.3529 215.724 31.3529C214.611 31.2941 214.494 29.8235 214.904 28.9412L215.021 28.7647L214.669 28.6471H214.611C214.376 28.6471 214.084 28.7647 213.966 28.8235C213.673 28.9412 213.439 29.0588 213.263 29.2353C212.853 29.5294 212.443 29.8824 211.916 30.2941C211.389 30.7059 210.979 31.0588 210.569 31.3529C210.1 31.6471 209.807 31.7059 209.748 31.7059C209.338 31.7059 209.28 31.5882 209.338 31.2353C209.28 31.1176 209.456 30.8824 209.514 30.7647C209.631 30.4706 209.69 30.2941 209.807 30.1765C209.924 29.8824 210.393 29 210.92 28.2353C211.272 27.8235 211.682 27.4118 211.857 27.1765C212.209 26.8824 212.443 26.8235 212.443 26.8235C212.619 26.8235 212.678 26.9412 212.619 27.0588Z" fill="white"/>
<path d="M245.457 1.64706C240.419 3.35294 227.062 19.5882 224.016 26C223.899 26.1765 224.016 26.2941 224.192 26.3529L224.25 26.4706L224.485 26.3529C224.602 26.3529 224.836 26.2353 224.895 26.1765C225.071 26.1176 225.129 26 225.363 25.8824C225.774 25.6471 226.184 25.3529 226.535 25C227.355 24.4118 228.293 23.7647 228.527 23.5294C230.284 22.0588 232.042 20.6471 233.799 19C233.858 18.8824 233.916 18.7647 234.092 18.6471C234.209 18.5294 234.209 18.4118 234.268 18.2941C235.03 17.4118 236.143 16.5882 236.904 15.7059C240.185 12.2941 244.344 7 246.043 3.47059C246.336 2.94118 246.512 1.88235 245.809 1.58823H245.633L245.457 1.64706ZM222.2 29.2353C222.083 29.5294 222.024 29.7647 221.966 30.0588L221.907 30.2353H222.141C222.493 30.2353 222.786 30.1176 222.903 29.9412C223.137 29.8235 223.313 29.7059 223.372 29.5882C223.489 29.5294 223.665 29.4118 223.782 29.2941C224.895 28.1765 226.769 27.0588 228.351 27.0588C228.761 27.0588 228.996 27.2353 229.054 27.5294C229.113 27.8824 228.996 28.2941 228.937 28.8235C228.761 29.0588 228.82 29.2941 228.703 29.5294C228.703 29.7647 228.703 30 228.703 30.1765C228.703 30.5882 228.82 31 229.581 31C230.753 31 231.925 30.3529 232.745 29.7059C233.682 29.0588 234.502 28.2941 235.088 27.8235C235.088 27.8235 235.088 27.8235 235.205 27.8235C235.381 27.8235 235.381 27.8235 235.44 27.8235C235.674 27.8235 235.85 27.8824 235.674 28.2353C235.264 28.8235 232.686 30.4118 231.983 30.8235C231.163 31.2941 230.226 31.5882 229.406 31.5882C227.941 31.5882 227.824 30.4706 228 29.4118C228 29.1765 228 28.9412 228.117 28.6471C228.117 28.4118 228.175 28.1765 228.293 27.9412L228.41 27.7059H228.058C227.297 27.7059 226.652 28 225.891 28.4118C225.246 28.8824 224.543 29.4118 223.782 29.9412C223.313 30.4706 222.669 31.0588 222.2 31.4706C221.848 31.7059 221.614 31.8235 221.438 31.9412C221.321 32.0588 221.263 32.0588 221.145 32.0588C220.735 32.0588 220.56 31.7647 220.618 31.1765C220.735 30.8824 220.853 30.5294 220.97 30.2941C221.145 30 221.263 29.7647 221.321 29.5882C224.016 23.8235 227.707 18.7647 231.749 13.8824C232.921 12.2941 234.385 10.7059 235.908 9.17647C236.67 8.29412 238.486 6.23529 240.595 4.41177C242.645 2.41176 244.579 1 245.809 1C246.687 1 247.098 1.47059 246.98 2.17647C246.98 3.82353 245.809 5.52941 244.871 6.82353C244.344 7.58823 243.641 8.41176 243.114 9.23529C237.842 16.2353 231.632 22.9412 223.957 27.2941L223.782 27.3529C223.723 27.4118 223.723 27.4118 223.547 27.4706C223.489 27.5294 223.313 27.5882 223.137 27.7059L222.962 27.7647V27.8235C222.786 28.2941 222.434 28.7647 222.2 29.2353Z" fill="white"/>
<path d="M1.27827 31.8824C1.27827 31.8824 1.27827 31.8824 1.1611 31.8824H1.04394C0.985354 31.8235 0.985354 31.7647 1.04394 31.7059C1.04394 31.6471 1.27827 31.4706 1.80551 31.2353C2.39134 31 3.03574 30.8235 3.79732 30.5882C4.44173 30.4118 5.2033 30.1765 5.90629 29.9412C6.1992 29.8235 6.43353 29.8235 6.72645 29.7059C6.84361 29.6471 7.13652 29.5294 7.25369 29.4118C7.37085 29.4118 7.31227 29.2941 7.48802 29.2353C7.48802 29.2353 7.5466 29.1176 7.5466 29.0588C7.72235 28.8824 7.78093 28.7059 7.95668 28.4706C8.30818 28 8.65967 27.4118 9.01117 26.8235C9.77274 25.5882 10.5929 24.2941 10.8272 23.9412C11.8817 22.4118 12.9362 20.9412 13.9321 19.3529C14.8694 17.9412 15.631 16.4118 16.6269 15C16.7441 14.8235 16.9198 14.7647 17.037 14.7647C17.2127 14.7647 17.3299 14.7647 17.3885 14.7647C17.037 15.5882 16.334 16.4706 15.9239 17.2353C15.2795 18.5882 14.225 20.0588 13.3463 21.2353C11.5888 23.7059 9.83132 26.2353 8.77684 28.6471C8.71825 28.8235 8.77684 28.9412 8.83542 29C8.95258 29 9.01116 29 9.12833 29C9.18691 29 9.2455 29 9.36266 29C9.42124 28.9412 9.53841 28.9412 9.53841 28.9412C9.65557 28.9412 9.77274 28.8824 9.94849 28.8235C10.1828 28.7647 10.4757 28.7059 10.4757 28.7059C14.8108 27.6471 19.2045 26.7647 23.4811 26.1765L23.774 26C24.2426 25.5882 24.477 25.0588 24.7699 24.5294C25.1214 24 25.2385 23.5294 25.5314 23.1176C28.2262 19.1176 31.0382 15.2941 33.9088 11.4706C34.0845 11.2941 34.4946 10.5882 35.0218 9.94118C35.2562 9.70588 35.4319 9.35294 35.6662 9.11765C35.7248 9.05882 35.9006 9 35.9006 8.94118C36.0763 8.94118 36.1349 8.94118 36.1935 8.94118C36.3106 9 36.3106 9 36.1935 9.05882C35.9591 9.64706 35.2562 10.8235 34.3188 12C33.3229 13.2941 32.3856 14.5882 31.7412 15.4118C30.8625 16.5882 29.9837 17.5882 29.2807 18.7059C28.2848 20.3529 27.1132 22 26.1173 23.5882C25.7658 24.1765 25.2971 24.8235 25.0628 25.2941C24.9456 25.5294 24.887 25.6471 25.0628 25.7647V25.8824H25.1214C25.2971 25.8824 25.3557 25.8824 25.5314 25.8824C26.5274 25.8824 28.1677 25.6471 29.4565 25.6471C30.9796 25.6471 31.8584 25.6471 31.8584 26.5294C31.7412 26.5882 31.7412 26.6471 31.5655 26.7059C31.3897 26.8235 31.3311 26.8235 31.3311 26.8235C31.214 26.7647 31.214 26.7059 31.1554 26.7059C31.214 26.6471 31.1554 26.6471 31.0968 26.5882C30.921 26.5294 30.921 26.4118 30.8625 26.3529C30.7453 26.2941 30.6281 26.2353 30.3352 26.2353H28.8707C27.7576 26.2353 26.5859 26.3529 25.3557 26.4706C25.1214 26.4706 24.887 26.5294 24.7699 26.5882C24.7699 26.5882 24.7113 26.5882 24.5941 26.6471H24.5355L24.3598 26.7647C24.3012 26.7647 24.0083 27 24.0083 27.0588C23.9497 27.1765 23.8911 27.2941 23.8326 27.4706C23.4811 27.8235 23.4225 28.2353 23.1296 28.7059C22.7195 29.5294 22.1922 30.4706 22.1922 30.5294C21.8993 31.0588 21.4893 31.5294 21.1963 32.1176C20.6691 33.1765 20.259 34.2941 20.0247 35.3529C19.9661 35.6471 20.0833 36.0588 20.0833 36.3529C20.0833 36.4706 20.0833 36.5882 20.1419 36.7059C20.2004 36.7647 20.2004 36.7647 20.2004 36.8235C20.1419 36.9412 19.9075 37 19.7904 37C19.4974 37 19.3217 36.8824 19.2631 36.5294C19.2045 36.2353 19.2045 35.7647 19.3217 35.1765C19.6732 34.1765 20.2004 33.0588 20.3762 32.5882L21.8993 29.4706C22.0751 29 22.4266 28.5882 22.6609 28.1176C22.7195 28.0588 22.9538 27.7647 23.0124 27.5294C23.0124 27.4118 23.071 27.2941 23.0124 27.1176C22.9538 27.0588 22.9538 26.8235 22.6023 26.8235C22.6023 26.8235 22.5437 26.8235 22.4852 26.8824C22.3094 26.8824 22.1922 26.8824 22.1337 26.8824C21.9579 26.9412 21.665 27 21.3721 27.0588C20.8448 27.1176 20.259 27.2353 20.1419 27.2353C18.2672 27.5882 16.2754 27.9412 14.4593 28.2941C12.6433 28.7059 10.8272 29.1765 9.01117 29.5882C8.07384 29.7647 7.78093 30.2941 7.5466 30.7059C6.90219 32 6.14062 33.1765 5.55479 34.4118C5.14472 35.2353 4.67606 36.2941 4.55889 37.1176C4.55889 37.2353 4.50031 37.3529 4.61747 37.4706C4.55889 37.5882 4.67606 37.7059 4.67606 37.8235C4.67606 37.8824 4.79322 38 4.73464 38.0588C4.8518 38.1176 4.73464 38.1765 4.73464 38.2353C4.67606 38.3529 4.50031 38.4706 4.32456 38.4706C4.03165 38.4706 3.91448 38.3529 3.79732 38.0588C3.73873 37.8235 3.73873 37.3529 3.79732 36.9412C4.03165 36 4.61747 34.9412 4.79322 34.5294C5.2033 33.5294 5.78912 32.5882 6.31637 31.5294C6.43353 31.3529 6.5507 31.1176 6.72645 30.8235C6.90219 30.5882 6.49212 30.4118 6.25779 30.4118C6.1992 30.4118 6.08204 30.4118 6.02346 30.4118C6.02346 30.4118 5.84771 30.4706 5.78912 30.4706C5.02755 30.7059 4.14881 30.9412 3.38724 31.1765C2.68425 31.4118 1.98126 31.6471 1.27827 31.8824Z" stroke="white" stroke-width="0.6" mask="url(#path-1-outside-1_88_95)"/>
<path d="M30.6245 28C30.3316 28.1765 30.0386 28.4118 29.8629 28.6471C29.4528 29.1765 29.2185 29.7059 29.0427 29.9412C29.1013 30.0588 28.9256 30.2941 28.867 30.4706C28.7498 30.7059 28.7498 30.9412 28.8084 31.0588C28.7498 31.1176 28.8084 31.1765 28.8084 31.1765C28.9256 31.1765 28.9256 31.2353 28.9842 31.2941L29.1013 31.4118L29.3942 31.3529C30.273 31.1176 31.679 29.5294 31.8547 29.0588C32.089 28.5882 32.2648 28.0588 31.7375 27.7059L31.6204 27.6471H31.5618C31.1517 27.6471 30.8002 27.8235 30.6245 28ZM35.1353 28.0588C35.3697 28 35.6626 27.9412 35.8969 27.9412C36.0726 28 36.1312 28 36.0726 28.1765C35.9555 28.2941 35.7212 28.4118 35.2525 28.5882C34.6667 28.7059 34.1394 28.7647 33.5536 28.7647C33.495 28.7059 33.2607 28.7059 33.0849 28.7059H32.9092L32.7334 28.8235C32.6749 28.8824 32.4405 29.0588 32.3234 29.1765C32.3234 29.2941 32.1476 29.4118 31.9719 29.5882C31.7375 29.8824 31.4446 30.2941 31.0931 30.7059C30.3316 31.4118 29.6286 31.9412 28.6327 31.9412C27.6368 31.9412 27.5782 30.9412 27.9297 30.1176C28.2812 29.4118 30.0386 27.2353 30.8588 27.2353C30.9174 27.2353 31.0931 27.1765 31.2689 27.1176C31.4446 27.1176 31.5032 27.0588 31.679 27C31.8547 26.9412 31.9719 26.9412 32.089 26.9412C32.2648 26.9412 32.3234 26.9412 32.3819 27.0588C32.4991 27.1176 32.4991 27.1765 32.5577 27.2353C32.7334 27.2941 32.7334 27.4118 32.7334 27.4706C32.8506 27.8235 33.2021 28.2353 34.1394 28.2353C34.4909 28.2353 34.8424 28.1765 35.1353 28.0588Z" stroke="white" stroke-width="0.6" mask="url(#path-1-outside-1_88_95)"/>
<path d="M40.0238 27.4706C40.1409 27.1765 40.0238 26.7059 39.4379 26.7059C38.3249 26.7059 37.1532 27.5294 36.3916 28.2941C35.4543 29.0588 34.9271 30 34.5756 30.5294C34.4584 30.8824 34.3998 31.0588 34.3413 31.2941C34.3998 31.3529 34.3998 31.4706 34.3998 31.5294C34.4584 31.6471 34.3998 31.7647 34.3998 31.8824L34.517 32.0588L34.7513 32C36.1573 31.7647 39.7309 28.1765 40.0238 27.4706ZM36.9189 31.4118C36.5674 31.5882 36.2745 31.8235 36.0987 32C35.5129 32.3529 34.8685 32.5882 34.1655 32.5882C33.7554 32.5882 33.6383 32.3529 33.4625 31.9412C33.4039 31.5882 33.5797 31.0588 33.7554 30.7647C34.4584 29.1176 37.2118 26.2353 39.5551 26.2353C40.3753 26.2353 41.0783 27.0588 40.8439 27.6471L40.3167 28.8235C40.0238 29.3529 39.6137 29.8235 39.4379 30.3529C38.9693 31.1176 38.9107 32.7059 40.4924 32.7059C41.7812 32.7059 43.3044 31.6471 44.5346 30.5882C45.179 30.0588 45.8234 29.4706 46.4679 29C46.9365 28.5294 47.4638 28.1176 47.7567 27.9412C47.8738 27.8235 48.0496 27.7647 48.2253 27.7647C48.4011 27.7647 48.4597 27.8235 48.4597 27.9412C48.4597 28 48.2839 28.0588 48.2839 28.1765C48.1082 28.2941 47.8738 28.3529 47.6981 28.4706C46.9365 29.1765 46.1749 29.9412 45.2962 30.7059C44.2417 31.6471 41.6055 33.3529 40.1995 33.3529C38.735 33.3529 38.1491 31.9412 38.442 30.8824V30.4118L37.9148 30.7647C37.6219 30.9412 37.2118 31.1765 36.9189 31.4118ZM38.3835 22.7059C38.3835 22.6471 38.3835 22.6471 38.5006 22.6471C38.5006 22.6471 38.5592 22.6471 38.735 22.8235C38.9107 22.9412 39.0279 23.0588 39.2622 23.2941C39.4965 23.6471 39.7309 24.0588 39.9066 24.2353C39.9652 24.3529 40.1409 24.4706 40.3167 24.5882C40.3753 24.6471 40.551 24.7647 40.6096 24.8824C40.6096 24.9412 40.6096 25 40.6096 25.0588C40.4924 25.2353 40.4338 25.2941 40.1995 25.2941C39.7894 25.2941 38.1491 23.1765 38.1491 22.9412C38.2077 22.8824 38.2077 22.7647 38.3835 22.7059Z" stroke="white" stroke-width="0.6" mask="url(#path-1-outside-1_88_95)"/>
<path d="M49.1713 27.0588C49.1713 27.1176 49.1128 27.1176 48.9956 27.1765C48.9956 27.2941 48.8199 27.3529 48.8199 27.3529C48.4684 27.7059 47.4139 29.3529 47.2967 29.7059L47.121 29.9412H47.8239L47.9997 29.8824C48.3512 29.7059 48.7613 29.4706 49.1128 29.1765C49.3471 28.9412 49.7572 28.7059 50.0501 28.4706C50.8702 27.9412 51.4561 27.6471 52.0419 27.6471C52.3348 27.6471 52.452 27.7647 52.5691 28C52.5691 28.1176 52.5106 28.2941 52.3934 28.4706C52.3934 28.6471 52.3934 28.8235 52.2176 29.0588C52.2176 29.4118 52.0419 29.8824 52.1591 30.1765C52.1591 30.5294 52.452 30.8824 53.155 30.8824C54.6195 30.8824 56.4356 29.5294 57.5487 28.5882C57.9587 28.2941 58.3102 28.1176 58.5446 28C58.5446 28 58.7203 27.9412 58.9546 27.9412C59.1304 27.9412 59.189 28 59.1304 28.1765C58.7789 28.7647 55.0882 31.0588 53.9751 31.2941C53.6822 31.3529 53.2721 31.4118 52.9206 31.4118C52.6863 31.4118 52.5106 31.3529 52.2762 31.3529C51.1632 31.2941 51.046 29.8235 51.4561 28.9412L51.5732 28.7647L51.2217 28.6471H51.1632C50.9288 28.6471 50.6359 28.7647 50.5187 28.8235C50.2258 28.9412 49.9915 29.0588 49.8158 29.2353C49.4057 29.5294 48.9956 29.8824 48.4684 30.2941C47.9411 30.7059 47.531 31.0588 47.121 31.3529C46.6523 31.6471 46.3594 31.7059 46.3008 31.7059C45.8907 31.7059 45.8321 31.5882 45.8907 31.2353C45.8321 31.1176 46.0079 30.8824 46.0665 30.7647C46.1836 30.4706 46.2422 30.2941 46.3594 30.1765C46.4765 29.8824 46.9452 29 47.4725 28.2353C47.8239 27.8235 48.234 27.4118 48.4098 27.1765C48.7613 26.8824 48.9956 26.8235 48.9956 26.8235C49.1713 26.8235 49.2299 26.9412 49.1713 27.0588Z" stroke="white" stroke-width="0.6" mask="url(#path-1-outside-1_88_95)"/>
<path d="M56.5848 31.4118C56.5848 31.5294 56.702 31.7647 57.112 31.7647C58.2251 31.7647 62.2673 28.7059 62.5602 28.1765C62.5602 28.0588 62.6188 28 62.6188 28C62.6188 27.8824 62.5602 27.7647 62.6188 27.6471C62.736 27.5294 62.736 27.3529 62.6774 27.2353C62.6774 26.9412 62.5016 26.6471 61.9158 26.6471H61.8572L61.6815 26.7059C61.5057 26.7647 61.5057 26.7647 61.4471 26.8235C61.2714 26.8824 61.0956 26.8824 61.0371 26.9412C60.6856 27.0588 60.4512 27.1765 60.2755 27.3529C58.9281 28.2941 57.815 29.3529 57.0534 30.4118C56.8777 30.5294 56.8777 30.7059 56.8777 30.7647C56.7605 30.8235 56.7605 30.8824 56.7605 30.9412C56.702 31.0588 56.6434 31.2353 56.5848 31.4118ZM54.3001 40.0588C53.3627 40.5882 52.6012 41.1176 51.8982 41.5294C50.7851 42.1765 49.7892 42.8235 48.6176 43.4706C47.5631 44.1765 46.3914 44.8823 45.2784 45.6471C43.1108 47.2353 41.119 48.8824 40.3574 50.5882C40.1817 50.9412 40.0059 51.3529 40.0645 51.7647C40.1231 52.1176 40.4746 52.4706 41.1776 52.4706C42.2321 52.4706 43.9895 51.6471 44.8683 51.2353C49.2034 49 52.1911 45.8235 54.6516 42.8235C55.2374 42.0588 56.9949 39.7059 57.3464 39C57.4049 38.9412 57.4049 38.8824 57.3464 38.8235C57.4049 38.7647 57.4049 38.7647 57.4049 38.7059L57.2878 38.4706L56.9363 38.6471C56.1161 39 55.2374 39.5294 54.3001 40.0588ZM56.4676 32.4118H56.3505C56.0575 32.4118 55.9404 32.2353 55.7646 31.9412C55.7646 29.6471 60.2169 26.1765 62.2087 26.1765C62.6774 26.1765 62.8531 26.2941 63.0875 26.4118C63.2046 26.5294 63.2632 26.5882 63.4975 26.7059C63.5561 26.7647 63.6733 26.8824 63.9662 26.9412C64.2005 27 64.2005 27.1765 64.2005 27.4118C63.9662 27.8235 63.6733 28.2941 63.4975 28.7059C62.736 30.2353 62.1501 31.7647 61.3886 33.2941C61.4471 33.4118 61.2128 33.8235 61.0371 34.1765C60.9199 34.3529 60.8613 34.5294 60.7441 34.6471C60.7441 34.7647 60.7441 34.8235 60.6856 34.8824C60.7441 34.9412 60.7441 35 60.7441 35.0588V35.1765H60.9199C61.0956 35.1765 61.33 35.1176 61.3886 35.0588C61.5643 35 61.6229 34.8824 61.9158 34.8235C62.0915 34.5882 62.5016 34.3529 62.9117 34.0588C63.5561 33.4706 64.6106 32.6471 65.3722 31.8235C66.7782 30.6471 68.3013 29.3529 69.5901 28.0588C69.8244 27.9412 69.9416 27.8824 70.0002 27.8824C70.1759 27.8824 70.2345 28.0588 70.2345 28.1765C70.0002 28.4706 69.2972 29.1765 68.4185 29.9412C67.4226 30.8235 66.5438 31.5882 66.0752 32C64.7278 33.4118 63.0289 34.7059 61.1542 35.9412C60.8027 36.2353 60.3927 36.4118 59.9826 36.6471C59.4553 37 58.7523 37.9412 58.0494 39.0588C57.1706 40.2353 56.1747 41.7647 54.8859 43.3529C52.3668 46.5882 48.9105 50.1176 44.5168 52C43.3451 52.4706 41.8806 53.0588 40.8261 53.0588C39.1858 53.0588 39.01 52 39.5958 50.8824C41.119 47.5294 45.1026 44.9412 48.2661 43.1176C48.6761 42.8824 48.9105 42.6471 49.3205 42.4706C50.2579 42 51.1366 41.4118 52.0153 40.8235C53.8314 39.5882 56.0575 38.4118 58.0494 37.2353C58.2251 37.1765 58.2251 37.1176 58.2837 37.1176C58.4008 37.0588 58.4594 37 58.518 36.9412C58.6938 36.8235 58.8695 36.7059 58.8695 36.5294C58.9867 36.4118 58.9867 36.3529 59.1624 36.2353C59.221 36.0588 59.3382 35.9412 59.3967 35.7647C59.7482 35.3529 60.3341 34.1765 60.627 33.7059C60.627 33.5882 60.627 33.4706 60.627 33.2941C60.8027 32.8235 60.9785 32.3529 61.2128 31.8235C61.4471 31.2941 61.7986 30.7647 61.9744 30.2353L62.1501 30.0588L61.5643 29.8824L61.3886 30.0588C61.2128 30.1176 61.1542 30.1765 60.9785 30.2353C60.9199 30.2941 60.8027 30.3529 60.6856 30.4706C60.3341 30.7059 60.0412 30.9412 59.6311 31.1765C58.6938 31.7647 57.5807 32.4118 56.4676 32.4118Z" stroke="white" stroke-width="0.6" mask="url(#path-1-outside-1_88_95)"/>
<path d="M92.0753 21.2941C91.3137 21.5882 88.6189 23.7059 87.9745 24.3529C85.7484 26.1176 83.8151 27.8824 81.8819 29.6471C81.589 30.0588 80.9446 30.7647 80.2416 31.4118C79.6558 32.0588 79.07 32.6471 78.6599 32.9412C78.1326 33.2353 77.7226 33.4706 77.3711 33.4706C76.9024 33.4706 76.7852 33.1176 76.8438 32.4706C76.961 32.1765 76.961 31.8235 77.1367 31.5294C77.3125 31.2353 77.4882 30.9412 77.5468 30.7647C77.7812 30.3529 77.7811 30 77.8397 29.6471C78.0741 29.2353 78.4841 28.8235 78.6599 28.4118C80.5345 24.6471 82.995 21.0588 85.7484 17.8824C86.4514 16.9412 87.0958 16.1765 87.2715 16C87.3301 16 87.4473 15.9412 87.4473 15.9412C87.623 15.9412 87.6816 15.9412 87.6816 16C87.623 16.1176 87.6816 16.2353 87.623 16.3529C87.3887 16.7647 86.9786 17.2941 86.5685 17.8824C85.9827 18.4706 85.514 19.0588 85.1626 19.4706C83.6394 21.5294 82.3506 23.5294 80.9446 25.5882C80.7103 26.0588 79.8315 27.4118 79.5972 27.8235L78.1326 30.9412C77.8983 31.2941 77.8983 31.7647 77.7811 32.1176V32.2941H78.0155C78.1912 32.2941 78.367 32.2353 78.4256 32.1765C78.4841 32.1765 78.6013 32.1176 78.6599 32.0588C78.8356 31.9412 78.9528 31.8235 79.1871 31.6471C79.4215 31.4118 79.5972 31.1176 79.773 31C83.5808 27.1765 87.5644 23.7059 91.9581 20.5882C92.1339 20.4118 92.6025 20.2941 92.954 20.2941C93.0126 20.2941 93.1298 20.3529 93.1884 20.5294C93.3641 20.7059 93.3641 21 93.3055 21.4118C93.1884 22.1765 92.8369 23.1765 92.4854 24.1765C92.0167 25.2941 91.6066 26.2941 91.2551 27.1176C91.138 27.5294 90.9622 27.8824 90.9622 28.1176C90.8451 28.2353 90.7865 28.3529 90.7865 28.4706C90.7865 28.5294 90.7865 28.5294 90.8451 28.5882C90.8451 28.6471 90.9036 28.7059 91.0208 28.7059L91.0794 28.7647H91.2551C91.4309 28.7059 91.4895 28.6471 91.4895 28.6471C91.548 28.5882 91.6066 28.5882 91.6066 28.5294C91.6066 28.4706 91.7824 28.4118 91.841 28.2941C92.0753 28.1176 92.3096 27.8824 92.544 27.5882C92.8954 27.1176 93.2469 26.5882 93.4227 26.4706C96.1175 23.3529 106.369 13.8824 110.939 13.8824C112.169 13.8824 112.403 14.7647 111.993 15.6471L110.587 18.4706C110.412 18.9412 110.119 19.4118 109.767 19.9412C109.299 20.4706 108.947 20.9412 108.654 21.4118C107.717 22.7647 106.662 24.1176 105.725 25.5294C104.671 26.8824 103.85 28.2353 103.206 29.5882C102.854 30.3529 102.151 31.2353 101.8 32.0588C101.449 32.7059 101.156 33.4118 100.921 34.0588C100.57 34.7647 100.277 35.4706 100.16 36.1765C100.101 36.2941 100.101 36.3529 100.16 36.4706C100.16 36.5294 100.16 36.6471 100.218 36.7059C100.335 36.7647 100.335 36.8235 100.335 36.8824C100.335 36.9412 100.335 37 100.335 37C100.335 37 100.16 37.1176 100.16 37.1765C100.101 37.1765 99.9839 37.2353 99.9839 37.2353C99.3981 37.2353 99.3395 37 99.281 36.5294C99.3981 36 99.5739 35.4706 99.7496 35.0588C99.9839 34.7059 99.9254 34.4118 100.101 34.0588C100.335 33.4118 100.687 32.7647 100.98 32.1765C103.44 26.8824 108.42 21.7647 110.939 16.5294C110.997 16.2941 111.232 15.8824 111.232 15.4706C111.232 15.2353 111.29 15 111.173 14.8824C111.115 14.7059 110.939 14.5294 110.587 14.5294C110.177 14.5294 109.533 14.7647 109.24 14.8824C103.675 16.8824 95.6488 24.5882 92.6611 28.2941C92.3096 28.7059 91.7238 29.5294 91.138 30.2941C90.5521 31.1176 89.9077 31.8235 89.732 32.0588C89.4977 32.2941 89.3219 32.3529 89.2633 32.3529C88.8533 32.3529 88.7361 32.2353 88.7361 32C88.9704 30.9412 90.1421 28.0588 90.6693 26.8824C90.7279 26.8235 90.7279 26.7647 90.8451 26.6471C90.6693 26.5882 90.7865 26.5294 90.7865 26.4706C90.8451 26.4118 90.7865 26.3529 90.7865 26.2941C90.8451 26.2353 90.8451 26.2353 90.8451 26.1765C91.0208 25.7059 91.548 24.6471 91.841 23.7059C92.3096 22.7647 92.4854 21.8235 92.4854 21.3529L92.4268 21.1176L92.0753 21.2941Z" stroke="white" stroke-width="0.6" mask="url(#path-1-outside-1_88_95)"/>
<path d="M106.828 40.4706C106.418 40.8235 105.95 41.1176 105.423 41.4706C104.602 41.9412 103.841 42.3529 103.079 42.7647C98.4512 45.6471 93.1787 49.0588 91.3041 53.0588C91.0698 53.4706 91.1869 54.4118 92.0657 54.4118C93.5888 54.4118 95.5806 53.6471 96.8695 53C100.97 51 103.665 47.6471 105.481 44.9412C105.95 44.2353 106.418 43.2941 106.828 42.7647C107.356 42.1176 107.824 41.2941 108.176 40.5882C108.234 40.4706 108.234 40.3529 108.352 40.1765V39.9412L107.942 40C107.766 40.0588 106.946 40.4118 106.828 40.4706ZM111.749 36.7059C111.749 36.6471 111.984 36.5294 112.16 36.4706C112.511 36.2941 112.862 35.9412 113.331 35.6471C114.268 35 115.323 34.1176 116.377 33.2941C118.545 31.5294 120.947 29.5882 121.416 29.1176C121.708 28.8824 121.943 28.6471 122.119 28.4118C122.353 28.1765 122.587 28 122.704 27.8235C122.939 27.7059 123.232 27.5882 123.349 27.5882C123.466 27.5882 123.525 27.7059 123.466 27.7647C123.114 29.0588 112.277 37.0588 110.636 38.1765C109.699 38.7059 108.645 40.8235 108.293 41.8235C107.942 42.3529 107.473 42.9412 107.121 43.5294C105.305 46.7059 101.966 50.7647 97.631 53.1176C95.9907 54 93.6474 55 91.8899 55C90.7769 55 90.0739 54.1176 90.484 53.2353L91.1869 51.8235C91.3627 51.3529 92.0071 50.7059 92.4758 50.1765C94.7605 47.6471 98.5684 44.8235 102.025 42.8235C103.196 42.1176 104.427 41.4118 105.54 40.7647C106.711 40.0588 107.766 39.4118 108.82 38.6471C108.996 38.5294 109.055 38.4118 109.23 38.2353C109.465 38.0588 110.168 36.8235 110.168 36.6471C110.636 35.8824 110.754 35.2353 111.105 34.5294L112.687 31.1765C112.745 31 112.745 30.8824 112.57 30.7647L112.452 30.5882L112.277 30.7059C112.16 30.7647 112.042 30.8235 112.042 30.8824C111.925 30.8824 111.925 30.9412 111.749 31C111.632 31.1176 111.515 31.2353 111.339 31.3529C110.988 31.6471 110.578 32 110.109 32.3529C109.055 33.1176 108.059 33.7059 107.004 33.7059C106.36 33.7059 106.008 33.3529 105.95 32.7647C105.891 32.2353 106.067 31.5882 106.36 31.0588C106.536 30.7647 107.063 29.7059 107.649 28.7647C108 28.2941 108.352 27.8235 108.703 27.5294C108.879 27.3529 108.937 27.2353 109.055 27.1765C109.113 27.1176 109.23 27.1176 109.23 27.1176C109.348 27.1176 109.465 27.2353 109.348 27.5294C109.289 27.6471 109.289 27.7059 109.113 27.8235C108.176 29 107.531 30.1176 106.887 31.4118C106.828 31.5882 106.711 32 106.711 32.2941C106.711 32.4706 106.77 32.6471 106.77 32.7647C106.887 32.9412 107.004 33.0588 107.297 33.0588C107.824 33.0588 108.41 32.8235 108.879 32.5294C109.406 32.2353 109.875 31.8235 110.461 31.4118C111.398 30.5294 112.452 29.5882 112.804 29.1765C113.155 28.7647 113.565 28.2353 113.917 27.7059C114.093 27.4706 114.268 27.2353 114.444 27C114.62 26.7647 114.737 26.5882 114.971 26.4118C115.147 26.2353 115.382 26.1176 115.557 26.1176C115.616 26.1176 115.792 26.3529 115.733 26.5294C115.382 27.2353 114.913 27.9412 114.561 28.5882C114.327 29.1765 114.21 29.7059 113.917 30.2353C113.741 30.7647 112.98 32.1765 112.335 33.5294C111.691 34.8235 110.988 36.2941 110.929 36.6471L110.988 36.8235H111.222C111.398 36.8235 111.632 36.7647 111.749 36.7059ZM109.523 25.0588C109.699 24.3529 111.105 23.5882 112.042 23.5882C112.218 23.5882 112.335 23.6471 112.511 23.7647C112.687 23.8235 112.921 23.9412 113.097 24.1176C113.155 24.1765 113.214 24.2353 113.39 24.2941C113.741 24.6471 113.976 24.7059 114.503 24.7059C115.264 24.7059 115.616 24.3529 115.967 24.1176C115.967 24.0588 116.085 24 116.085 23.9412C116.26 23.8824 116.202 23.8235 116.202 23.8235C116.319 23.7647 116.319 23.7647 116.436 23.7647C116.729 23.7647 116.788 23.8235 116.67 24.1176C116.436 24.7059 115.264 25.2941 114.444 25.2941C113.448 25.2941 112.57 24.6471 111.867 24.1765V24.1176H111.691C111.105 24.2353 110.285 24.6471 109.933 25.1176C109.875 25.1176 109.758 25.1765 109.699 25.1765C109.582 25.1765 109.582 25.1765 109.582 25.1765C109.582 25.1765 109.523 25.1176 109.523 25.0588Z" stroke="white" stroke-width="0.6" mask="url(#path-1-outside-1_88_95)"/>
<path d="M134.158 24.6471C136.325 21.8235 138.493 18.8824 140.953 16.0588C141.363 15.4118 143.824 11.7059 144.468 11.7059C144.644 11.7059 144.644 11.7647 144.644 11.8824C144.175 12.8824 141.715 16 140.66 17.1176C139.957 18 139.372 18.8235 138.61 19.7647C138.2 20.4118 137.614 21.0588 137.087 21.7059C134.744 24.7059 132.459 27.8235 130.994 30.9412C129.94 33.0588 129.764 36.4118 133.689 36.4118C136.618 36.4118 139.899 34.7059 142.652 32.8824C145.523 31 147.866 29.0588 149.975 27.8235C150.151 27.7059 150.209 27.7059 150.444 27.7059L150.561 27.8235C150.444 27.9412 150.268 28.1765 150.092 28.3529C147.163 30.5294 144.41 32.6471 140.953 34.4706C138.61 35.8235 135.739 36.9412 133.103 36.9412C130.233 36.9412 129.295 35.1176 129.53 33.1765C129.647 32.8824 129.705 32.5294 129.881 32.2353C129.94 31.8824 130.057 31.5294 130.116 31.1765C130.116 31.0588 130.116 31 130.174 30.9412C130.174 30.8235 130.291 30.7059 130.291 30.5294C130.467 30.2941 130.643 30 130.819 29.7647C130.877 29.5294 131.053 29.2941 131.17 29.0588L131.404 28.7647H131.346C132.283 27.4118 133.045 26.0588 134.158 24.6471Z" stroke="white" stroke-width="0.6" mask="url(#path-1-outside-1_88_95)"/>
<path d="M153.642 27.4706C153.759 27.1765 153.642 26.7059 153.056 26.7059C151.943 26.7059 150.771 27.5294 150.01 28.2941C149.072 29.0588 148.545 30 148.194 30.5294C148.077 30.8824 148.018 31.0588 147.959 31.2941C148.018 31.3529 148.018 31.4706 148.018 31.5294C148.077 31.6471 148.018 31.7647 148.018 31.8824L148.135 32.0588L148.369 32C149.775 31.7647 153.349 28.1765 153.642 27.4706ZM150.537 31.4118C150.186 31.5882 149.893 31.8235 149.717 32C149.131 32.3529 148.487 32.5882 147.784 32.5882C147.374 32.5882 147.256 32.3529 147.081 31.9412C147.022 31.5882 147.198 31.0588 147.374 30.7647C148.077 29.1176 150.83 26.2353 153.173 26.2353C153.993 26.2353 154.696 27.0588 154.462 27.6471L153.935 28.8235C153.642 29.3529 153.232 29.8235 153.056 30.3529C152.587 31.1176 152.529 32.7059 154.111 32.7059C155.399 32.7059 156.923 31.6471 158.153 30.5882C158.797 30.0588 159.442 29.4706 160.086 29C160.555 28.5294 161.082 28.1176 161.375 27.9412C161.492 27.8235 161.668 27.7647 161.843 27.7647C162.019 27.7647 162.078 27.8235 162.078 27.9412C162.078 28 161.902 28.0588 161.902 28.1765C161.726 28.2941 161.492 28.3529 161.316 28.4706C160.555 29.1765 159.793 29.9412 158.914 30.7059C157.86 31.6471 155.224 33.3529 153.818 33.3529C152.353 33.3529 151.767 31.9412 152.06 30.8824V30.4118L151.533 30.7647C151.24 30.9412 150.83 31.1765 150.537 31.4118Z" stroke="white" stroke-width="0.6" mask="url(#path-1-outside-1_88_95)"/>
<path d="M170.64 27.3529C170.581 27.3529 170.581 27.4118 170.464 27.4118C170.464 27.4118 170.405 27.4118 170.229 27.4706C169.116 28.0588 167.476 29.4118 166.773 30.2353C166.773 30.3529 166.597 30.4706 166.539 30.5294C166.539 30.5882 166.422 30.5882 166.422 30.5882C166.422 30.8235 166.012 30.8235 165.836 30.8235C165.836 30.7647 165.777 30.7647 165.66 30.7647C165.543 30.7059 165.543 30.7059 165.543 30.5882C166.012 29.8235 166.304 28.6471 166.48 27.7647C166.597 27.5882 166.539 27.4706 166.597 27.3529C166.597 27.2941 166.48 27.1765 166.48 27.0588L166.422 26.9412L166.129 27C164.898 27.4118 163.61 28.6471 162.614 29.6471C162.086 30.2941 161.442 30.9412 160.739 31.4118C160.68 31.4706 160.563 31.4706 160.563 31.4706C160.329 31.4706 160.27 31.3529 160.095 31.1176C160.095 30.8824 160.212 30.4706 160.27 30.2941L161.325 28.1176C161.559 27.7059 162.614 25.8824 163.024 25.5294C163.141 25.3529 163.141 25.3529 163.258 25.3529C163.492 25.3529 163.551 25.4706 163.492 25.6471C162.965 26.5882 162.262 27.5294 161.852 28.4118C161.735 28.5294 161.794 28.6471 161.735 28.7647L161.794 28.8824H161.911C161.911 28.9412 161.969 28.9412 162.086 28.9412C162.204 28.9412 162.321 28.9412 162.497 28.8824C162.555 28.8235 162.614 28.7647 162.614 28.7647C162.789 28.6471 162.907 28.5294 163.082 28.4118C163.375 28.1765 163.727 27.8235 164.137 27.5294C165.016 26.8235 165.836 26.2941 166.89 26.2941C167.183 26.2941 167.3 26.4706 167.359 26.8824C167.359 27.0588 167.359 27.2353 167.359 27.4118C167.3 27.6471 167.3 27.8235 167.242 27.9412V28H167.359C167.242 28.0588 167.242 28.0588 167.242 28.1176L167.183 28.2353L167.359 28.2941C167.359 28.3529 167.417 28.3529 167.476 28.3529C167.769 28.3529 168.003 28.2941 168.003 28.2353C168.238 28.1765 168.296 28.0588 168.472 28C168.999 27.4706 170.932 26.4706 171.577 26.4706C171.928 26.4706 172.163 26.6471 172.163 27C172.046 27.1765 172.104 27.3529 171.928 27.6471C171.928 27.8824 171.87 28.1176 171.753 28.4118C171.518 28.9412 171.284 29.5294 171.284 29.9412C171.343 30.4118 171.694 30.8235 172.573 30.8235C173.744 30.8235 174.975 29.9412 175.912 29.2353C176.498 28.8824 176.908 28.5294 177.318 28.2941C177.611 28.1176 177.669 28.0588 177.904 28C177.904 27.9412 178.021 27.9412 178.021 27.9412C178.255 27.9412 178.314 28 178.255 28.1176C178.138 28.2353 178.021 28.3529 177.904 28.4706C176.381 29.7059 174.213 31.4118 172.221 31.4118C170.64 31.4118 170.405 30.5882 170.581 29.6471C170.698 29.1765 170.932 28.7059 171.05 28.2941C171.108 28.1176 171.108 27.9412 171.108 27.7647C171.108 27.6471 171.225 27.4706 171.108 27.3529L170.991 27.2353L170.64 27.3529Z" stroke="white" stroke-width="0.6" mask="url(#path-1-outside-1_88_95)"/>
<path d="M207.527 22.2353C207.996 21.4706 208.406 20.6471 208.757 19.8824C209.284 19.2353 210.69 16.2941 210.983 15.7059C211.042 15.6471 211.159 15.4118 211.218 15.2353C211.218 15.1176 211.335 15 211.393 14.8824C211.393 14.8235 211.393 14.8235 211.393 14.7647C211.393 14.7059 211.393 14.6471 211.393 14.5882L211.335 14.5294H211.218C210.983 14.5294 210.749 14.5882 210.573 14.7647C210.573 14.7647 210.515 14.8235 210.515 14.8824C210.28 15.1176 209.987 15.4118 209.519 15.8235C209.167 16.1765 208.816 16.5294 208.406 16.8235C206.121 19.1176 203.368 21.4118 200.79 23.5882C200.79 23.6471 200.497 23.9412 200.087 24.1765C199.911 24.3529 199.735 24.4706 199.677 24.5882C199.677 24.5882 199.56 24.6471 199.501 24.7059C199.384 24.7647 199.384 24.8235 199.384 24.8235C199.267 25 199.267 25.1765 199.442 25.2941H199.735C201.551 25 203.836 24.8235 205.652 24.8235H205.828L205.887 24.7647C206.238 24.5294 206.59 24.2353 206.648 24C206.648 23.8235 206.824 23.5882 207 23.3529C207.117 23 207.41 22.5882 207.527 22.2353ZM209.519 25.2353C210.222 25.4118 210.515 25.6471 210.339 26.1176C210.163 26.3529 209.753 26.6471 209.519 26.6471C209.402 26.6471 209.284 26.4118 209.343 26.1765L209.46 26.0588L209.343 26C209.05 25.6471 208.23 25.5882 207.644 25.5882C207.41 25.5882 207.117 25.5882 206.824 25.6471L206.531 25.7647C206.531 25.8235 206.414 25.8824 206.414 25.8824C206.472 25.9412 206.472 25.9412 206.355 26C206.355 26.0588 206.238 26.1765 206.238 26.2353C206.062 26.4706 206.062 26.7059 205.887 27C205.535 27.4706 205.418 28 205.359 28.1765C204.363 30.1176 202.665 34.0588 202.665 35.8824L202.606 36.0588H202.84C203.016 36.0588 203.25 36.0588 203.426 36.1765C203.543 36.2353 203.602 36.2941 203.602 36.2941C203.367 36.6471 202.899 36.8824 202.372 36.8824C202.196 36.8824 202.02 36.8235 201.903 36.5882C201.786 36.3529 201.844 35.9412 201.903 35.5294C201.962 34.5882 202.372 33.4118 202.84 32.1765C203.778 29.6471 205.184 27 205.359 26.4706C205.769 25.5882 205.711 25.4706 204.481 25.4706C203.543 25.4706 198.622 25.8824 197.802 26.1176L197.568 26.2353C197.099 26.6471 195.049 28.2353 192.94 29.7647C191.827 30.5294 190.889 31.3529 190.011 31.8824C189.542 32.1176 189.249 32.3529 188.898 32.4706C188.605 32.6471 188.488 32.7059 188.37 32.7059C188.37 32.7059 188.37 32.6471 188.253 32.5882C188.253 32.5294 188.136 32.4706 188.077 32.4118C188.429 32.1176 188.546 32 189.015 31.8235C189.659 31.6471 191.007 30.5294 192.413 29.4706C193.057 28.9412 193.819 28.4118 194.463 27.9412C195.049 27.4706 195.576 27.1176 195.81 26.8824L196.045 26.7647L195.986 26.6471C195.928 26.5294 195.81 26.4118 195.576 26.4118C195.517 26.4118 195.4 26.4118 195.283 26.4706C195.166 26.4706 195.107 26.4706 195.107 26.4706C194.17 26.5882 192.471 26.9412 190.714 27.2353C189.073 27.5294 187.433 27.7647 186.906 27.7647C186.847 27.7647 186.847 27.7059 186.906 27.5882C187.023 27.4118 187.199 27.2941 187.316 27.2941C188.898 27 190.421 26.7647 192.002 26.4706C193.526 26.1765 194.932 25.8824 196.513 25.7059C197.275 25.5882 197.685 25.4706 198.271 24.9412C202.84 21.4118 207.293 17.4706 211.276 13.2353C212.916 11.5294 214.674 9.88235 216.139 8.05882C216.314 7.82353 216.666 7.64706 216.841 7.64706C216.9 7.64706 217.017 7.64706 217.076 7.70588C216.783 8.47059 216.197 9.23529 215.67 9.82353C213.795 12.0588 211.862 15.2353 210.632 17.8235C210.573 18.1176 210.28 18.3529 210.222 18.6471C209.226 20.6471 208.113 22.6471 207.175 24.5882L207.117 24.7647L207.351 24.8235C207.878 24.9412 208.757 25 209.519 25.2353Z" stroke="white" stroke-width="0.6" mask="url(#path-1-outside-1_88_95)"/>
<path d="M212.619 27.0588C212.619 27.1176 212.56 27.1176 212.443 27.1765C212.443 27.2941 212.267 27.3529 212.267 27.3529C211.916 27.7059 210.861 29.3529 210.744 29.7059L210.569 29.9412H211.272L211.447 29.8824C211.799 29.7059 212.209 29.4706 212.56 29.1765C212.795 28.9412 213.205 28.7059 213.498 28.4706C214.318 27.9412 214.904 27.6471 215.49 27.6471C215.782 27.6471 215.9 27.7647 216.017 28C216.017 28.1176 215.958 28.2941 215.841 28.4706C215.841 28.6471 215.841 28.8235 215.665 29.0588C215.665 29.4118 215.49 29.8824 215.607 30.1765C215.607 30.5294 215.9 30.8824 216.603 30.8824C218.067 30.8824 219.883 29.5294 220.996 28.5882C221.406 28.2941 221.758 28.1176 221.992 28C221.992 28 222.168 27.9412 222.402 27.9412C222.578 27.9412 222.637 28 222.578 28.1765C222.227 28.7647 218.536 31.0588 217.423 31.2941C217.13 31.3529 216.72 31.4118 216.368 31.4118C216.134 31.4118 215.958 31.3529 215.724 31.3529C214.611 31.2941 214.494 29.8235 214.904 28.9412L215.021 28.7647L214.669 28.6471H214.611C214.376 28.6471 214.084 28.7647 213.966 28.8235C213.673 28.9412 213.439 29.0588 213.263 29.2353C212.853 29.5294 212.443 29.8824 211.916 30.2941C211.389 30.7059 210.979 31.0588 210.569 31.3529C210.1 31.6471 209.807 31.7059 209.748 31.7059C209.338 31.7059 209.28 31.5882 209.338 31.2353C209.28 31.1176 209.456 30.8824 209.514 30.7647C209.631 30.4706 209.69 30.2941 209.807 30.1765C209.924 29.8824 210.393 29 210.92 28.2353C211.272 27.8235 211.682 27.4118 211.857 27.1765C212.209 26.8824 212.443 26.8235 212.443 26.8235C212.619 26.8235 212.678 26.9412 212.619 27.0588Z" stroke="white" stroke-width="0.6" mask="url(#path-1-outside-1_88_95)"/>
<path d="M245.457 1.64706C240.419 3.35294 227.062 19.5882 224.016 26C223.899 26.1765 224.016 26.2941 224.192 26.3529L224.25 26.4706L224.485 26.3529C224.602 26.3529 224.836 26.2353 224.895 26.1765C225.071 26.1176 225.129 26 225.363 25.8824C225.774 25.6471 226.184 25.3529 226.535 25C227.355 24.4118 228.293 23.7647 228.527 23.5294C230.284 22.0588 232.042 20.6471 233.799 19C233.858 18.8824 233.916 18.7647 234.092 18.6471C234.209 18.5294 234.209 18.4118 234.268 18.2941C235.03 17.4118 236.143 16.5882 236.904 15.7059C240.185 12.2941 244.344 7 246.043 3.47059C246.336 2.94118 246.512 1.88235 245.809 1.58823H245.633L245.457 1.64706ZM222.2 29.2353C222.083 29.5294 222.024 29.7647 221.966 30.0588L221.907 30.2353H222.141C222.493 30.2353 222.786 30.1176 222.903 29.9412C223.137 29.8235 223.313 29.7059 223.372 29.5882C223.489 29.5294 223.665 29.4118 223.782 29.2941C224.895 28.1765 226.769 27.0588 228.351 27.0588C228.761 27.0588 228.996 27.2353 229.054 27.5294C229.113 27.8824 228.996 28.2941 228.937 28.8235C228.761 29.0588 228.82 29.2941 228.703 29.5294C228.703 29.7647 228.703 30 228.703 30.1765C228.703 30.5882 228.82 31 229.581 31C230.753 31 231.925 30.3529 232.745 29.7059C233.682 29.0588 234.502 28.2941 235.088 27.8235C235.088 27.8235 235.088 27.8235 235.205 27.8235C235.381 27.8235 235.381 27.8235 235.44 27.8235C235.674 27.8235 235.85 27.8824 235.674 28.2353C235.264 28.8235 232.686 30.4118 231.983 30.8235C231.163 31.2941 230.226 31.5882 229.406 31.5882C227.941 31.5882 227.824 30.4706 228 29.4118C228 29.1765 228 28.9412 228.117 28.6471C228.117 28.4118 228.175 28.1765 228.293 27.9412L228.41 27.7059H228.058C227.297 27.7059 226.652 28 225.891 28.4118C225.246 28.8824 224.543 29.4118 223.782 29.9412C223.313 30.4706 222.669 31.0588 222.2 31.4706C221.848 31.7059 221.614 31.8235 221.438 31.9412C221.321 32.0588 221.263 32.0588 221.145 32.0588C220.735 32.0588 220.56 31.7647 220.618 31.1765C220.735 30.8824 220.853 30.5294 220.97 30.2941C221.145 30 221.263 29.7647 221.321 29.5882C224.016 23.8235 227.707 18.7647 231.749 13.8824C232.921 12.2941 234.385 10.7059 235.908 9.17647C236.67 8.29412 238.486 6.23529 240.595 4.41177C242.645 2.41176 244.579 1 245.809 1C246.687 1 247.098 1.47059 246.98 2.17647C246.98 3.82353 245.809 5.52941 244.871 6.82353C244.344 7.58823 243.641 8.41176 243.114 9.23529C237.842 16.2353 231.632 22.9412 223.957 27.2941L223.782 27.3529C223.723 27.4118 223.723 27.4118 223.547 27.4706C223.489 27.5294 223.313 27.5882 223.137 27.7059L222.962 27.7647V27.8235C222.786 28.2941 222.434 28.7647 222.2 29.2353Z" stroke="white" stroke-width="0.6" mask="url(#path-1-outside-1_88_95)"/>
</svg>
